<svg width="91" height="91" viewBox="0 0 91 91" fill="none" xmlns="http://www.w3.org/2000/svg">
    <path d="M79.0824 91H11.9556C5.36862 91 0 85.6695 0 79.0824V11.9556C0 5.36862 5.36862 0 11.9556 0H79.0824C85.6695 0 91 5.36862 91 11.9556V79.0824C91 85.6695 85.6695 91 79.0824 91ZM11.9556 2.55105C6.77741 2.55105 2.55105 6.77741 2.55105 11.9556V79.0824C2.55105 84.2607 6.77741 88.487 11.9556 88.487H79.0824C84.2607 88.487 88.487 84.2607 88.487 79.0824V11.9556C88.487 6.77741 84.2607 2.55105 79.0824 2.55105H11.9556Z" fill="#F3C8A1"/>
    <path d="M75.0089 85.6695H15.9921C10.1285 85.6695 5.33105 80.872 5.33105 75.0084V15.9917C5.33105 10.1281 10.1285 5.33057 15.9921 5.33057H75.0089C80.8725 5.33057 85.67 10.1281 85.67 15.9917V75.0084C85.67 80.9101 80.9105 85.6695 75.0089 85.6695ZM15.9921 7.88161C11.5373 7.88161 7.8821 11.5368 7.8821 15.9917V75.0084C7.8821 79.4632 11.5373 83.1184 15.9921 83.1184H75.0089C79.4637 83.1184 83.1189 79.4632 83.1189 75.0084V15.9917C83.1189 11.5368 79.4637 7.88161 75.0089 7.88161H15.9921Z" fill="#F3C8A1"/>
    <path d="M20.2943 33.3159H16.7152C15.5349 33.3159 14.583 32.364 14.583 31.1837V27.6046C14.583 26.4243 15.5349 25.4724 16.7152 25.4724H20.2943C21.4746 25.4724 22.4265 26.4243 22.4265 27.6046V31.1837C22.4265 32.364 21.4746 33.3159 20.2943 33.3159Z" fill="#F3C8A1"/>
    <path d="M29.2797 33.3159H25.7006C24.5202 33.3159 23.5684 32.364 23.5684 31.1837V27.6046C23.5684 26.4243 24.5202 25.4724 25.7006 25.4724H29.2797C30.46 25.4724 31.4119 26.4243 31.4119 27.6046V31.1837C31.4119 32.364 30.46 33.3159 29.2797 33.3159Z" fill="#F3C8A1"/>
    <path d="M38.265 33.3159H34.6859C33.5056 33.3159 32.5537 32.364 32.5537 31.1837V27.6046C32.5537 26.4243 33.5056 25.4724 34.6859 25.4724H38.265C39.4453 25.4724 40.3972 26.4243 40.3972 27.6046V31.1837C40.4353 32.364 39.4834 33.3159 38.265 33.3159Z" fill="#F3C8A1"/>
    <path d="M47.2894 33.3159H43.7103C42.53 33.3159 41.5781 32.364 41.5781 31.1837V27.6046C41.5781 26.4243 42.53 25.4724 43.7103 25.4724H47.2894C48.4698 25.4724 49.4216 26.4243 49.4216 27.6046V31.1837C49.4216 32.364 48.4698 33.3159 47.2894 33.3159Z" fill="#F3C8A1"/>
    <path d="M56.2757 33.3159H52.6967C51.5163 33.3159 50.5645 32.364 50.5645 31.1837V27.6046C50.5645 26.4243 51.5163 25.4724 52.6967 25.4724H56.2757C57.4561 25.4724 58.408 26.4243 58.408 27.6046V31.1837C58.408 32.364 57.4561 33.3159 56.2757 33.3159Z" fill="#F3C8A1"/>
    <path d="M65.2982 33.3159H61.681C60.5007 33.3159 59.5488 32.364 59.5488 31.1837V27.6046C59.5488 26.4243 60.5007 25.4724 61.681 25.4724H65.2601C66.4405 25.4724 67.3923 26.4243 67.3923 27.6046V31.1837C67.4304 32.364 66.4785 33.3159 65.2982 33.3159Z" fill="#F3C8A1"/>
    <path d="M74.2855 33.3159H70.7064C69.5261 33.3159 68.5742 32.364 68.5742 31.1837V27.6046C68.5742 26.4243 69.5261 25.4724 70.7064 25.4724H74.2855C75.4659 25.4724 76.4177 26.4243 76.4177 27.6046V31.1837C76.4177 32.364 75.4659 33.3159 74.2855 33.3159Z" fill="#F3C8A1"/>
    <path d="M20.2943 43.2535H16.7152C15.5349 43.2535 14.583 42.3017 14.583 41.1213V37.5423C14.583 36.3619 15.5349 35.41 16.7152 35.41H20.2943C21.4746 35.41 22.4265 36.3619 22.4265 37.5423V41.1213C22.4265 42.2636 21.4746 43.2535 20.2943 43.2535Z" fill="#F3C8A1"/>
    <path d="M29.2797 43.2535H25.7006C24.5202 43.2535 23.5684 42.3017 23.5684 41.1213V37.5423C23.5684 36.3619 24.5202 35.41 25.7006 35.41H29.2797C30.46 35.41 31.4119 36.3619 31.4119 37.5423V41.1213C31.4119 42.2636 30.46 43.2535 29.2797 43.2535Z" fill="#F3C8A1"/>
    <path d="M38.265 43.2535H34.6859C33.5056 43.2535 32.5537 42.3017 32.5537 41.1213V37.5423C32.5537 36.3619 33.5056 35.41 34.6859 35.41H38.265C39.4453 35.41 40.3972 36.3619 40.3972 37.5423V41.1213C40.4353 42.2636 39.4834 43.2535 38.265 43.2535Z" fill="#F3C8A1"/>
    <path d="M47.2894 43.2535H43.7103C42.53 43.2535 41.5781 42.3017 41.5781 41.1213V37.5423C41.5781 36.3619 42.53 35.41 43.7103 35.41H47.2894C48.4698 35.41 49.4216 36.3619 49.4216 37.5423V41.1213C49.4216 42.2636 48.4698 43.2535 47.2894 43.2535Z" fill="#D1DCE5"/>
    <path d="M56.2757 43.2535H52.6967C51.5163 43.2535 50.5645 42.3017 50.5645 41.1213V37.5423C50.5645 36.3619 51.5163 35.41 52.6967 35.41H56.2757C57.4561 35.41 58.408 36.3619 58.408 37.5423V41.1213C58.408 42.2636 57.4561 43.2535 56.2757 43.2535Z" fill="#D1DCE5"/>
    <path d="M65.2982 43.2535H61.681C60.5007 43.2535 59.5488 42.3017 59.5488 41.1213V37.5423C59.5488 36.3619 60.5007 35.41 61.681 35.41H65.2601C66.4405 35.41 67.3923 36.3619 67.3923 37.5423V41.1213C67.4304 42.2636 66.4785 43.2535 65.2982 43.2535Z" fill="#D1DCE5"/>
    <path d="M74.2855 43.2535H70.7064C69.5261 43.2535 68.5742 42.3017 68.5742 41.1213V37.5423C68.5742 36.3619 69.5261 35.41 70.7064 35.41H74.2855C75.4659 35.41 76.4177 36.3619 76.4177 37.5423V41.1213C76.4177 42.2636 75.4659 43.2535 74.2855 43.2535Z" fill="#F3C8A1"/>
    <path d="M20.2943 53.1531H16.7152C15.5349 53.1531 14.583 52.2012 14.583 51.0209V47.4418C14.583 46.2615 15.5349 45.3096 16.7152 45.3096H20.2943C21.4746 45.3096 22.4265 46.2615 22.4265 47.4418V51.0209C22.4265 52.2012 21.4746 53.1531 20.2943 53.1531Z" fill="#F3C8A1"/>
    <path d="M29.2797 53.1531H25.7006C24.5202 53.1531 23.5684 52.2012 23.5684 51.0209V47.4418C23.5684 46.2615 24.5202 45.3096 25.7006 45.3096H29.2797C30.46 45.3096 31.4119 46.2615 31.4119 47.4418V51.0209C31.4119 52.2012 30.46 53.1531 29.2797 53.1531Z" fill="#F3C8A1"/>
    <path d="M38.265 53.1531H34.6859C33.5056 53.1531 32.5537 52.2012 32.5537 51.0209V47.4418C32.5537 46.2615 33.5056 45.3096 34.6859 45.3096H38.265C39.4453 45.3096 40.3972 46.2615 40.3972 47.4418V51.0209C40.4353 52.2012 39.4834 53.1531 38.265 53.1531Z" fill="#F3C8A1"/>
    <path d="M47.2894 53.1531H43.7103C42.53 53.1531 41.5781 52.2012 41.5781 51.0209V47.4418C41.5781 46.2615 42.53 45.3096 43.7103 45.3096H47.2894C48.4698 45.3096 49.4216 46.2615 49.4216 47.4418V51.0209C49.4216 52.2012 48.4698 53.1531 47.2894 53.1531Z" fill="#F3C8A1"/>
    <path d="M56.2757 53.1531H52.6967C51.5163 53.1531 50.5645 52.2012 50.5645 51.0209V47.4418C50.5645 46.2615 51.5163 45.3096 52.6967 45.3096H56.2757C57.4561 45.3096 58.408 46.2615 58.408 47.4418V51.0209C58.408 52.2012 57.4561 53.1531 56.2757 53.1531Z" fill="#F3C8A1"/>
    <path d="M65.2982 53.1531H61.681C60.5007 53.1531 59.5488 52.2012 59.5488 51.0209V47.4418C59.5488 46.2615 60.5007 45.3096 61.681 45.3096H65.2601C66.4405 45.3096 67.3923 46.2615 67.3923 47.4418V51.0209C67.4304 52.2012 66.4785 53.1531 65.2982 53.1531Z" fill="#F3C8A1"/>
    <path d="M74.2855 53.1531H70.7064C69.5261 53.1531 68.5742 52.2012 68.5742 51.0209V47.4418C68.5742 46.2615 69.5261 45.3096 70.7064 45.3096H74.2855C75.4659 45.3096 76.4177 46.2615 76.4177 47.4418V51.0209C76.4177 52.2012 75.4659 53.1531 74.2855 53.1531Z" fill="#F3C8A1"/>
    <path d="M20.2943 63.0908H16.7152C15.5349 63.0908 14.583 62.1389 14.583 60.9586V57.3795C14.583 56.1992 15.5349 55.2473 16.7152 55.2473H20.2943C21.4746 55.2473 22.4265 56.1992 22.4265 57.3795V60.9586C22.4265 62.1389 21.4746 63.0908 20.2943 63.0908Z" fill="#F3C8A1"/>
    <path d="M29.2797 63.0908H25.7006C24.5202 63.0908 23.5684 62.1389 23.5684 60.9586V57.3795C23.5684 56.1992 24.5202 55.2473 25.7006 55.2473H29.2797C30.46 55.2473 31.4119 56.1992 31.4119 57.3795V60.9586C31.4119 62.1389 30.46 63.0908 29.2797 63.0908Z" fill="#F3C8A1"/>
    <path d="M38.265 63.0908H34.6859C33.5056 63.0908 32.5537 62.1389 32.5537 60.9586V57.3795C32.5537 56.1992 33.5056 55.2473 34.6859 55.2473H38.265C39.4453 55.2473 40.3972 56.1992 40.3972 57.3795V60.9586C40.4353 62.1389 39.4834 63.0908 38.265 63.0908Z" fill="#F3C8A1"/>
    <path d="M47.2894 63.0908H43.7103C42.53 63.0908 41.5781 62.1389 41.5781 60.9586V57.3795C41.5781 56.1992 42.53 55.2473 43.7103 55.2473H47.2894C48.4698 55.2473 49.4216 56.1992 49.4216 57.3795V60.9586C49.4216 62.1389 48.4698 63.0908 47.2894 63.0908Z" fill="#F3C8A1"/>
    <path d="M56.2757 63.0908H52.6967C51.5163 63.0908 50.5645 62.1389 50.5645 60.9586V57.3795C50.5645 56.1992 51.5163 55.2473 52.6967 55.2473H56.2757C57.4561 55.2473 58.408 56.1992 58.408 57.3795V60.9586C58.408 62.1389 57.4561 63.0908 56.2757 63.0908Z" fill="#F3C8A1"/>
    <path d="M65.2982 63.0908H61.681C60.5007 63.0908 59.5488 62.1389 59.5488 60.9586V57.3795C59.5488 56.1992 60.5007 55.2473 61.681 55.2473H65.2601C66.4405 55.2473 67.3923 56.1992 67.3923 57.3795V60.9586C67.4304 62.1389 66.4785 63.0908 65.2982 63.0908Z" fill="#F3C8A1"/>
    <path d="M74.2855 63.0908H70.7064C69.5261 63.0908 68.5742 62.1389 68.5742 60.9586V57.3795C68.5742 56.1992 69.5261 55.2473 70.7064 55.2473H74.2855C75.4659 55.2473 76.4177 56.1992 76.4177 57.3795V60.9586C76.4177 62.1389 75.4659 63.0908 74.2855 63.0908Z" fill="#F3C8A1"/>
    <path d="M20.2943 73.0285H16.7152C15.5349 73.0285 14.583 72.0766 14.583 70.8962V67.3172C14.583 66.1368 15.5349 65.1849 16.7152 65.1849H20.2943C21.4746 65.1849 22.4265 66.1368 22.4265 67.3172V70.8962C22.4265 72.0766 21.4746 73.0285 20.2943 73.0285Z" fill="#F3C8A1"/>
    <path d="M29.2797 73.0285H25.7006C24.5202 73.0285 23.5684 72.0766 23.5684 70.8962V67.3172C23.5684 66.1368 24.5202 65.1849 25.7006 65.1849H29.2797C30.46 65.1849 31.4119 66.1368 31.4119 67.3172V70.8962C31.4119 72.0766 30.46 73.0285 29.2797 73.0285Z" fill="#F3C8A1"/>
    <path d="M38.265 73.0285H34.6859C33.5056 73.0285 32.5537 72.0766 32.5537 70.8962V67.3172C32.5537 66.1368 33.5056 65.1849 34.6859 65.1849H38.265C39.4453 65.1849 40.3972 66.1368 40.3972 67.3172V70.8962C40.4353 72.0766 39.4834 73.0285 38.265 73.0285Z" fill="#F3C8A1"/>
    <path d="M17.9267 25.6676V24.1616C18.1607 24.4736 18.4907 24.6356 18.8567 24.6356C19.6067 24.6356 20.1407 24.0656 20.1407 23.1116C20.1407 22.1576 19.6067 21.5936 18.8567 21.5936C18.4787 21.5936 18.1427 21.7736 17.9267 22.0616V21.6656H17.2967V25.6676H17.9267ZM19.4867 23.1116C19.4867 23.6756 19.1687 24.0776 18.6707 24.0776C18.3767 24.0776 18.0647 23.8976 17.9267 23.6876V22.5416C18.0647 22.3256 18.3767 22.1516 18.6707 22.1516C19.1687 22.1516 19.4867 22.5536 19.4867 23.1116ZM19.2527 31.5636H19.8827V29.5236C19.8827 28.9296 19.5707 28.5936 18.9467 28.5936C18.4907 28.5936 18.1187 28.8336 17.9267 29.0616V28.6656H17.2967V31.5636H17.9267V29.5416C18.0707 29.3436 18.3467 29.1516 18.6707 29.1516C19.0247 29.1516 19.2527 29.3016 19.2527 29.7516V31.5636Z" fill="#F3C8A1"/>
    <path d="M28.7924 24.5363H29.4524L30.3524 21.6383H29.6984L29.0864 23.7443L28.3964 21.6383H27.8444L27.1544 23.7443L26.5424 21.6383H25.8884L26.7884 24.5363H27.4484L28.1204 22.4123L28.7924 24.5363ZM27.1364 31.6083C27.4304 31.6083 27.6164 31.5303 27.7304 31.4223L27.5804 30.9483C27.5324 31.0023 27.4184 31.0503 27.2984 31.0503C27.1184 31.0503 27.0224 30.9063 27.0224 30.7083V29.1903H27.6104V28.6383H27.0224V27.8463H26.3924V28.6383H25.9124V29.1903H26.3924V30.8643C26.3924 31.3443 26.6504 31.6083 27.1364 31.6083Z" fill="#F3C8A1"/>
    <path d="M36.7599 21.3057L37.7499 20.4417H37.1499L36.3099 21.3057H36.7599ZM35.3259 24.2637C35.6259 24.5577 36.0759 24.7137 36.5679 24.7137C37.3479 24.7137 37.7739 24.3237 37.7739 23.8137C37.7739 23.1297 37.1559 22.9857 36.6519 22.8777C36.3099 22.7997 36.0219 22.7217 36.0219 22.4997C36.0219 22.2957 36.2319 22.1757 36.5619 22.1757C36.9219 22.1757 37.2459 22.3257 37.4199 22.5237L37.6839 22.0797C37.4199 21.8457 37.0479 21.6717 36.5559 21.6717C35.8239 21.6717 35.4159 22.0797 35.4159 22.5537C35.4159 23.2017 36.0099 23.3337 36.5079 23.4417C36.8619 23.5197 37.1679 23.6097 37.1679 23.8617C37.1679 24.0777 36.9759 24.2157 36.5979 24.2157C36.2199 24.2157 35.8179 24.0177 35.6139 23.8077L35.3259 24.2637ZM35.5779 31.6417H36.2079V29.6677C36.3339 29.4637 36.6879 29.2837 36.9519 29.2837C37.0299 29.2837 37.0959 29.2897 37.1499 29.3017V28.6777C36.7719 28.6777 36.4239 28.8937 36.2079 29.1697V28.7437H35.5779V31.6417Z" fill="#F3C8A1"/>
    <path d="M43.0093 23.2172C43.0093 24.0992 43.6273 24.7412 44.5093 24.7412C45.0733 24.7412 45.4153 24.5012 45.6193 24.2252L45.2053 23.8412C45.0433 24.0632 44.8213 24.1832 44.5393 24.1832C44.0113 24.1832 43.6632 23.7812 43.6632 23.2172C43.6632 22.6532 44.0113 22.2572 44.5393 22.2572C44.8213 22.2572 45.0433 22.3712 45.2053 22.5992L45.6193 22.2152C45.4153 21.9392 45.0733 21.6992 44.5093 21.6992C43.6273 21.6992 43.0093 22.3412 43.0093 23.2172ZM43.0573 31.6692H45.3553V31.1232H43.8853L45.3313 29.2332V28.7712H43.0573V29.3232H44.4913L43.0573 31.1952V31.6692ZM45.7153 38.6692H46.3753L47.2753 35.7712H46.6213L46.0093 37.8772L45.3193 35.7712H44.7673L44.0773 37.8772L43.4653 35.7712H42.8113L43.7113 38.6692H44.3713L45.0433 36.5452L45.7153 38.6692Z" fill="#F3C8A1"/>
    <path d="M54.2353 25.6403V24.1343C54.4693 24.4463 54.7993 24.6083 55.1653 24.6083C55.9153 24.6083 56.4493 24.0383 56.4493 23.0843C56.4493 22.1303 55.9153 21.5663 55.1653 21.5663C54.7873 21.5663 54.4513 21.7463 54.2353 22.0343V21.6383H53.6053V25.6403H54.2353ZM55.7953 23.0843C55.7953 23.6483 55.4773 24.0503 54.9793 24.0503C54.6853 24.0503 54.3733 23.8703 54.2353 23.6603V22.5143C54.3733 22.2983 54.6853 22.1243 54.9793 22.1243C55.4773 22.1243 55.7953 22.5263 55.7953 23.0843ZM54.4753 31.6083C54.7693 31.6083 54.9553 31.5303 55.0693 31.4223L54.9193 30.9483C54.8713 31.0023 54.7573 31.0503 54.6373 31.0503C54.4573 31.0503 54.3613 30.9063 54.3613 30.7083V29.1903H54.9493V28.6383H54.3613V27.8463H53.7313V28.6383H53.2513V29.1903H53.7313V30.8643C53.7313 31.3443 53.9893 31.6083 54.4753 31.6083Z" fill="#F3C8A1"/>
    <path d="M61.614 24.1583C61.914 24.4523 62.364 24.6083 62.856 24.6083C63.636 24.6083 64.062 24.2183 64.062 23.7083C64.062 23.0243 63.444 22.8803 62.94 22.7723C62.598 22.6943 62.31 22.6163 62.31 22.3943C62.31 22.1903 62.52 22.0703 62.85 22.0703C63.21 22.0703 63.534 22.2203 63.708 22.4183L63.972 21.9743C63.708 21.7403 63.336 21.5663 62.844 21.5663C62.112 21.5663 61.704 21.9743 61.704 22.4483C61.704 23.0963 62.298 23.2283 62.796 23.3363C63.15 23.4143 63.456 23.5043 63.456 23.7563C63.456 23.9723 63.264 24.1103 62.886 24.1103C62.508 24.1103 62.106 23.9123 61.902 23.7023L61.614 24.1583ZM63.174 31.6083C64.104 31.6083 64.668 30.9183 64.668 30.0843C64.668 29.2563 64.104 28.5663 63.174 28.5663C62.256 28.5663 61.686 29.2563 61.686 30.0843C61.686 30.9183 62.256 31.6083 63.174 31.6083ZM63.174 31.0503C62.64 31.0503 62.34 30.6003 62.34 30.0843C62.34 29.5743 62.64 29.1243 63.174 29.1243C63.714 29.1243 64.014 29.5743 64.014 30.0843C64.014 30.6003 63.714 31.0503 63.174 31.0503ZM61.866 38.5363H62.496V38.1403C62.718 38.4283 63.048 38.6083 63.426 38.6083C64.164 38.6083 64.71 38.0443 64.71 37.0903C64.71 36.1543 64.17 35.5663 63.426 35.5663C63.06 35.5663 62.724 35.7343 62.496 36.0403V34.5343H61.866V38.5363ZM62.496 37.6663V36.5203C62.634 36.3043 62.946 36.1243 63.24 36.1243C63.744 36.1243 64.062 36.5263 64.062 37.0903C64.062 37.6543 63.744 38.0503 63.24 38.0503C62.946 38.0503 62.634 37.8823 62.496 37.6663Z" fill="#F3C8A1"/>
    <path d="M72.1716 24.5361H72.8016V22.4961C72.8016 21.9021 72.4896 21.5661 71.8656 21.5661C71.4096 21.5661 71.0376 21.8061 70.8456 22.0341V21.6381H70.2156V24.5361H70.8456V22.5141C70.9896 22.3161 71.2656 22.1241 71.5896 22.1241C71.9436 22.1241 72.1716 22.2741 72.1716 22.7241V24.5361ZM73.9319 21.1581C74.1479 21.1581 74.3219 20.9841 74.3219 20.7681C74.3219 20.5521 74.1479 20.3781 73.9319 20.3781C73.7219 20.3781 73.5419 20.5521 73.5419 20.7681C73.5419 20.9841 73.7219 21.1581 73.9319 21.1581ZM73.6199 24.5361H74.2499V21.6381H73.6199V24.5361ZM70.0356 30.0841C70.0356 31.0021 70.6836 31.6081 71.5536 31.6081C72.0156 31.6081 72.4416 31.4641 72.7296 31.1881L72.4416 30.7741C72.2376 30.9781 71.9016 31.0921 71.6196 31.0921C71.0736 31.0921 70.7436 30.7321 70.6956 30.2941H72.9336V30.1441C72.9336 29.2321 72.3756 28.5661 71.5056 28.5661C70.6476 28.5661 70.0356 29.2441 70.0356 30.0841ZM71.5056 29.0821C72.0756 29.0821 72.3096 29.5081 72.3216 29.8501H70.6896C70.7196 29.4961 70.9656 29.0821 71.5056 29.0821ZM72.2556 38.5361H72.8856V34.5341H72.2556V36.0401C72.0216 35.7341 71.6856 35.5661 71.3256 35.5661C70.5756 35.5661 70.0356 36.1541 70.0356 37.0901C70.0356 38.0441 70.5816 38.6081 71.3256 38.6081C71.6976 38.6081 72.0336 38.4281 72.2556 38.1401V38.5361ZM72.2556 37.6661C72.1116 37.8821 71.8056 38.0501 71.5056 38.0501C71.0076 38.0501 70.6896 37.6481 70.6896 37.0901C70.6896 36.5261 71.0076 36.1241 71.5056 36.1241C71.8056 36.1241 72.1116 36.2981 72.2556 36.5141V37.6661ZM70.0836 45.5361H72.3816V44.9901H70.9116L72.3576 43.1001V42.6381H70.0836V43.1901H71.5176L70.0836 45.0621V45.5361Z" fill="#F3C8A1"/>
</svg>
