<svg width="100" height="61" viewBox="0 0 100 61" fill="none" xmlns="http://www.w3.org/2000/svg">
    <path d="M88.433 61H11.6095C10.919 61 10.3579 60.4838 10.3147 59.7955L6.73251 13.1636C5.00614 13.0346 3.36609 12.3463 2.11447 11.1417C0.690213 9.80818 -0.0866533 8.00141 -0.000334818 6.23766C0.172302 2.92525 3.19345 0.215092 6.81883 0C6.86199 0 6.86199 0 6.90515 0H93.1373C93.1805 0 93.1805 0 93.2237 0C96.849 0.215092 99.8702 2.92525 100.043 6.23766C100.129 8.00141 99.3523 9.80818 97.928 11.1848C96.6764 12.3893 95.0363 13.0776 93.31 13.2066L89.7278 59.7955C89.6414 60.4838 89.0804 61 88.433 61ZM12.7748 58.4189H87.1814L90.7636 11.744C90.8067 11.3999 90.9794 11.0557 91.2383 10.8406C91.4973 10.6255 91.8426 10.4965 92.1878 10.5395C93.6121 10.7116 95.0364 10.2384 96.0722 9.24894C96.9354 8.43159 97.4101 7.35614 97.367 6.3237C97.2806 4.64598 95.5974 2.71016 93.051 2.53808H6.90515C4.35875 2.71016 2.67554 4.60296 2.58922 6.3237C2.54606 7.31312 3.02081 8.43159 3.884 9.24894C4.91982 10.2384 6.34408 10.6685 7.76833 10.5395C8.11361 10.4965 8.45888 10.6255 8.71784 10.8406C8.97679 11.0557 9.14943 11.3999 9.19259 11.744L12.7748 58.4189Z" fill="#F3C8A1"/>
</svg>
