<svg width="115" height="73" viewBox="0 0 115 73" fill="none" xmlns="http://www.w3.org/2000/svg">
    <path d="M106.424 0H57.6809C52.9405 0 49.1048 3.83259 49.1048 8.56909V11.4255H37.4528C31.5183 11.4255 25.8008 15.6919 21.2775 23.4294L7.05632 47.8351C5.2832 50.8722 5.50031 55.8257 6.83921 58.6097H1.19415C0.506608 58.6097 0 59.1521 0 59.8029C0 60.4537 0.542794 60.996 1.19415 60.996H9.95123H22.4355C22.3993 61.3576 22.3631 61.7553 22.3631 62.1169C22.3631 68.1189 27.2483 73 33.2552 73C39.2621 73 44.1473 68.1189 44.1473 62.1169C44.1473 61.7192 44.1111 61.3576 44.0749 60.996H49.0686H78.3433H83.9522C83.916 61.3576 83.8798 61.7553 83.8798 62.1169C83.8798 68.1189 88.7649 73 94.7719 73C100.779 73 105.664 68.1189 105.664 62.1169C105.664 61.7192 105.628 61.3576 105.592 60.996H106.388C111.128 60.996 114.964 57.1634 114.964 52.4269V8.56909C115 3.83259 111.164 0 106.424 0ZM23.3763 24.6226C23.8829 23.7187 24.4257 22.8871 25.0047 22.0916L33.7618 22.0193H33.798C34.5579 22.0193 35.2816 22.3086 35.8244 22.8509C36.3672 23.3933 36.6929 24.1526 36.6567 24.9118L36.5843 34.4572C36.5843 36.048 35.2816 37.3135 33.6894 37.3135H15.9581L23.3763 24.6226ZM33.2914 70.5775C28.6233 70.5775 24.8238 66.7811 24.8238 62.1169C24.8238 57.4527 28.6233 53.6563 33.2914 53.6563C37.9594 53.6563 41.759 57.4527 41.759 62.1169C41.759 66.7811 37.9594 70.5775 33.2914 70.5775ZM43.5683 58.5736C42.0846 54.3071 38.0318 51.2699 33.2914 51.2699C28.551 51.2699 24.4981 54.3432 23.0145 58.5736H9.98741C9.7703 58.5736 9.44462 58.2843 9.15513 57.8143C7.99717 55.8257 7.74386 51.4507 9.15513 49.0282L14.2212 40.3145H33.6894C36.91 40.3145 39.5516 37.7112 39.5878 34.4933L39.6602 24.948C39.6602 23.3571 39.045 21.8747 37.9232 20.7538C36.8014 19.633 35.354 19.0183 33.7618 19.0183C33.7256 19.0183 33.7256 19.0183 33.6894 19.0183L27.3568 19.0906C30.505 15.6558 33.9427 13.8479 37.4166 13.8479H49.0686V58.5736H43.5683ZM94.8442 70.5775C90.1762 70.5775 86.3766 66.7811 86.3766 62.1169C86.3766 57.4527 90.1762 53.6563 94.8442 53.6563C99.5123 53.6563 103.312 57.4527 103.312 62.1169C103.312 66.7811 99.5123 70.5775 94.8442 70.5775ZM112.576 52.4631C112.576 55.8618 109.825 58.6097 106.424 58.6097H105.121C103.638 54.3432 99.5846 51.3061 94.8442 51.3061C90.1038 51.3061 86.051 54.3794 84.5673 58.6097H78.4157H51.5654V8.56909C51.5654 5.17038 54.3156 2.42249 57.7171 2.42249H106.46C109.862 2.42249 112.612 5.17038 112.612 8.56909V52.4631H112.576Z" fill="#F3C8A1"/>
</svg>
