<svg width="58" height="94" viewBox="0 0 58 94" fill="none" xmlns="http://www.w3.org/2000/svg">
    <path d="M48.2809 94H9.67978C4.36771 94 0 89.6104 0 84.2718V9.72823C0 4.38957 4.36771 0 9.67978 0H48.2809C53.6323 0 57.9607 4.38957 57.9607 9.72823V84.2322C58 89.6104 53.6323 94 48.2809 94ZM9.67978 2.61001C5.78426 2.61001 2.59701 5.81321 2.59701 9.72823V84.2322C2.59701 88.1472 5.78426 91.3504 9.67978 91.3504H48.2809C52.1764 91.3504 55.3636 88.1472 55.3636 84.2322V9.72823C55.3636 5.81321 52.1764 2.61001 48.2809 2.61001H9.67978Z" fill="#F3C8A1"/>
    <path d="M46.1955 72.8826H11.8047C8.02721 72.8826 4.95801 69.798 4.95801 66.0017V13.6037C4.99736 9.80731 8.02721 6.72275 11.8047 6.72275H46.1955C49.9729 6.72275 53.0028 9.80731 53.0028 13.6037V66.0412C53.0028 69.7981 49.9336 72.8826 46.1955 72.8826ZM11.8047 9.41185C9.52246 9.41185 7.63372 11.2705 7.63372 13.6037V66.0412C7.63372 68.3349 9.48311 70.2331 11.8047 70.2331H46.1955C48.4777 70.2331 50.3664 68.3744 50.3664 66.0412V13.6037C50.3664 11.31 48.517 9.41185 46.1955 9.41185H11.8047Z" fill="#F3C8A1"/>
    <path d="M28.9993 89.0568C25.576 89.0568 22.7822 86.249 22.7822 82.8086C22.7822 79.3681 25.576 76.5604 28.9993 76.5604C32.4227 76.5604 35.2164 79.3681 35.2164 82.8086C35.2164 86.249 32.4227 89.0568 28.9993 89.0568ZM28.9993 78.9726C26.8745 78.9726 25.1825 80.7126 25.1825 82.8086C25.1825 84.9045 26.9138 86.6445 28.9993 86.6445C31.0848 86.6445 32.8161 84.9045 32.8161 82.8086C32.8161 80.7126 31.1242 78.9726 28.9993 78.9726Z" fill="#F3C8A1"/>
</svg>
