<svg width="104" height="82" viewBox="0 0 104 82" fill="none" xmlns="http://www.w3.org/2000/svg">
    <path d="M97.8726 0H6.16879C2.77389 0 0 2.79451 0 6.21465V75.7853C0 79.2055 2.77389 82 6.16879 82H18.0096H85.7006H97.8726C101.268 82 104.041 79.2055 104.041 75.7853V6.21465C104 2.79451 101.226 0 97.8726 0ZM80.7325 75.7853C80.7325 77.3703 79.6974 78.705 78.2484 79.1638H62.8057C61.3567 78.705 60.3217 77.3703 60.3217 75.7853V66.7762C60.3217 64.8159 61.8949 63.2309 63.8408 63.2309H77.2548C79.2006 63.2309 80.7739 64.8159 80.7739 66.7762V75.7853H80.7325ZM39.8694 79.1638C38.4204 78.705 37.3853 77.3703 37.3853 75.7853V66.7762C37.3853 64.8159 38.9586 63.2309 40.9045 63.2309H54.3185C56.2643 63.2309 57.8376 64.8159 57.8376 66.7762V75.7853C57.8376 77.3703 56.8025 78.705 55.3535 79.1638H39.8694ZM36.1433 63.1058C36.0191 62.939 35.8535 62.7721 35.7293 62.6053H36.5573C36.3917 62.7304 36.2675 62.8973 36.1433 63.1058ZM44.1338 60.7284C44.2994 60.5616 44.4236 60.3947 44.5478 60.2279C44.672 60.3947 44.8376 60.5616 44.9618 60.7284H44.1338ZM58.6242 62.6053H59.4522C59.2866 62.7721 59.1624 62.939 59.0382 63.1058C58.914 62.8973 58.7898 62.7304 58.6242 62.6053ZM66.242 56.5575C66.242 58.5178 64.6688 60.1027 62.7229 60.1027H49.3089C47.3631 60.1027 45.7898 58.5178 45.7898 56.5575V47.5483C45.7898 45.588 47.3631 44.0031 49.3089 44.0031H62.7229C64.6688 44.0031 66.242 45.588 66.242 47.5483V56.5575ZM44.5478 43.8362C44.4236 43.6694 44.258 43.5025 44.1338 43.3357H44.9618C44.8376 43.5025 44.7134 43.6694 44.5478 43.8362ZM53.4904 37.2879C53.4904 39.2482 51.9172 40.8332 49.9713 40.8332H36.5573C34.6115 40.8332 33.0382 39.2482 33.0382 37.2879V28.2787C33.0382 26.3184 34.6115 24.7335 36.5573 24.7335H49.9713C51.9172 24.7335 53.4904 26.3184 53.4904 28.2787V37.2879ZM39.828 44.0031C41.7739 44.0031 43.3471 45.588 43.3471 47.5483V56.5575C43.3471 58.5178 41.7739 60.1027 39.828 60.1027H26.414C24.4682 60.1027 22.8949 58.5178 22.8949 56.5575V47.5483C22.8949 45.588 24.4682 44.0031 26.414 44.0031H39.828ZM31.3822 63.2309C33.328 63.2309 34.9013 64.8159 34.9013 66.7762V75.7853C34.9013 77.3703 33.8662 78.705 32.4172 79.1638H17.9682C16.1051 79.1638 14.6146 77.6623 14.6146 75.7853V65.7335C15.0701 64.2737 16.3949 63.2309 17.9682 63.2309H31.3822ZM82.1815 79.1638C82.8439 78.2045 83.2166 77.0366 83.2166 75.7853V66.7762C83.2166 63.4395 80.5255 60.7284 77.2134 60.7284H67.0701C68.1051 59.6439 68.7261 58.1841 68.7261 56.5575V47.5483C68.7261 44.2116 66.035 41.5005 62.7229 41.5005H54.3185C55.3535 40.4161 55.9745 38.9563 55.9745 37.3296V28.2787C55.9745 24.942 53.2834 22.2309 49.9713 22.2309H36.5573C33.2452 22.2309 30.5541 24.942 30.5541 28.2787V37.2879C30.5541 38.9145 31.1752 40.3744 32.2102 41.4588H26.414C23.1019 41.4588 20.4108 44.1699 20.4108 47.5066V56.5158C20.4108 58.1424 21.0318 59.6022 22.0669 60.6867H17.9682C16.7261 60.6867 15.5669 61.0621 14.6146 61.7294V18.1434C14.6146 16.2665 16.1051 14.765 17.9682 14.765H85.7006C87.5637 14.765 89.0541 16.2665 89.0541 18.1434V75.7436C89.0541 77.6206 87.5637 79.1221 85.7006 79.1221H82.1815V79.1638ZM101.185 75.7853C101.185 77.6623 99.6943 79.1638 97.8312 79.1638H90.8344C91.4554 78.2045 91.828 77.0366 91.828 75.7853V18.1434C91.828 14.7233 89.0541 11.9288 85.6592 11.9288H17.9682C14.5732 11.9288 11.7994 14.7233 11.7994 18.1434V75.7436C11.7994 76.9949 12.172 78.1628 12.793 79.1221H6.16879C4.30573 79.1221 2.81529 77.6206 2.81529 75.7436V6.21465C2.81529 4.33774 4.30573 2.83622 6.16879 2.83622H97.8726C99.7357 2.83622 101.226 4.33774 101.226 6.21465V75.7853H101.185Z" fill="#F3C8A1"/>
</svg>
