<svg width="115" height="73" viewBox="0 0 115 73" fill="none" xmlns="http://www.w3.org/2000/svg">
    <path d="M8.57615 0H57.3191C62.0595 0 65.8952 3.83259 65.8952 8.56909V11.4255H77.5472C83.4817 11.4255 89.1992 15.6919 93.7225 23.4294L107.944 47.8351C109.717 50.8722 109.5 55.8257 108.161 58.6097H113.806C114.493 58.6097 115 59.1521 115 59.8029C115 60.4537 114.457 60.996 113.806 60.996H105.049H92.5645C92.6007 61.3576 92.6369 61.7553 92.6369 62.1169C92.6369 68.1189 87.7517 73 81.7448 73C75.7379 73 70.8527 68.1189 70.8527 62.1169C70.8527 61.7192 70.8889 61.3576 70.9251 60.996H65.9314H36.6567H31.0478C31.084 61.3576 31.1202 61.7553 31.1202 62.1169C31.1202 68.1189 26.2351 73 20.2281 73C14.2212 73 9.33606 68.1189 9.33606 62.1169C9.33606 61.7192 9.37225 61.3576 9.40844 60.996H8.61234C3.87193 60.996 0.0361786 57.1634 0.0361786 52.4269V8.56909C-7.62939e-06 3.83259 3.83574 0 8.57615 0ZM91.6237 24.6226C91.1171 23.7187 90.5743 22.8871 89.9953 22.0916L81.2382 22.0193H81.202C80.4421 22.0193 79.7184 22.3086 79.1756 22.8509C78.6328 23.3933 78.3071 24.1526 78.3433 24.9118L78.4157 34.4572C78.4157 36.048 79.7184 37.3135 81.3106 37.3135H99.0419L91.6237 24.6226ZM81.7086 70.5775C86.3767 70.5775 90.1762 66.7811 90.1762 62.1169C90.1762 57.4527 86.3767 53.6563 81.7086 53.6563C77.0406 53.6563 73.241 57.4527 73.241 62.1169C73.241 66.7811 77.0406 70.5775 81.7086 70.5775ZM71.4317 58.5736C72.9154 54.3071 76.9682 51.2699 81.7086 51.2699C86.449 51.2699 90.5019 54.3432 91.9855 58.5736H105.013C105.23 58.5736 105.555 58.2843 105.845 57.8143C107.003 55.8257 107.256 51.4507 105.845 49.0282L100.779 40.3145H81.3106C78.09 40.3145 75.4484 37.7112 75.4122 34.4933L75.3398 24.948C75.3398 23.3571 75.955 21.8747 77.0768 20.7538C78.1986 19.633 79.646 19.0183 81.2382 19.0183C81.2744 19.0183 81.2744 19.0183 81.3106 19.0183L87.6432 19.0906C84.495 15.6558 81.0573 13.8479 77.5834 13.8479H65.9314V58.5736H71.4317ZM20.1558 70.5775C24.8238 70.5775 28.6234 66.7811 28.6234 62.1169C28.6234 57.4527 24.8238 53.6563 20.1558 53.6563C15.4877 53.6563 11.6882 57.4527 11.6882 62.1169C11.6882 66.7811 15.4877 70.5775 20.1558 70.5775ZM2.42448 52.4631C2.42448 55.8618 5.17464 58.6097 8.57615 58.6097H9.87885C11.3625 54.3432 15.4154 51.3061 20.1558 51.3061C24.8962 51.3061 28.949 54.3794 30.4327 58.6097H36.5843H63.4346V8.56909C63.4346 5.17038 60.6844 2.42249 57.2829 2.42249H8.53996C5.13845 2.42249 2.38829 5.17038 2.38829 8.56909V52.4631H2.42448Z" fill="#F3C8A1"/>
</svg>
