<svg width="98" height="93" viewBox="0 0 98 93" fill="none" xmlns="http://www.w3.org/2000/svg">
    <path d="M8.12076 35.1607C6.97877 32.1143 6.04825 27.7563 7.35943 23.5252C9.09357 17.9401 14.3806 14.1744 16.157 13.6243C16.2416 13.582 16.3262 13.582 16.4108 13.5397C17.0875 13.3705 18.2295 13.032 19.3715 12.1858C17.0452 17.0516 15.2265 22.1712 13.9153 27.4178C13.2809 29.9565 12.7733 32.5798 12.3504 35.1607H14.9304C15.3111 32.749 15.7764 30.3796 16.3685 28.0525C17.8066 22.2981 19.9214 16.6708 22.6283 11.3819C22.7129 11.5511 22.7975 11.805 22.8398 12.1011C22.8821 12.2281 22.8821 12.3127 22.9244 12.3973C23.4319 14.4283 24.5739 15.6553 25.5044 16.6708C25.7582 16.9246 25.9697 17.1785 26.1812 17.4324C27.7461 19.421 29.4803 24.4137 28.5075 29.4064C28.0845 31.4797 27.2386 33.4683 26.1812 35.1607H29.1419C29.9878 33.5106 30.6646 31.6912 31.0452 29.9142C32.1449 24.456 30.4108 18.6171 28.2114 15.8668C27.9576 15.5707 27.7038 15.2745 27.4078 14.9783C26.6041 14.1321 25.8005 13.2435 25.4622 11.805C25.4199 11.7203 25.4199 11.6357 25.3776 11.5511C25.2084 10.8318 24.9969 9.90096 24.0664 9.09705C22.9667 8.1662 21.2748 7.91233 19.9214 8.50469C19.2446 8.80087 18.864 9.18167 18.5679 9.56247C18.4833 9.6894 18.3564 9.77402 18.2295 9.90096C17.4259 10.6626 16.4531 10.9587 15.8186 11.128C15.6918 11.1703 15.5649 11.2126 15.438 11.2126C14.2537 11.5934 12.1389 12.8204 10.0664 14.8514C8.33224 16.5015 6.09055 19.2094 4.94855 22.8482C3.59508 27.0793 4.22952 31.6489 5.41381 35.1607H8.12076Z" fill="#F3C8A1"/>
    <path d="M32.1873 35.1607C30.4108 30.3795 31.2568 25.1329 32.0604 23.6097C32.1027 23.5251 32.145 23.4405 32.1873 23.3558C32.5256 22.7635 33.1178 21.7057 33.287 20.3094C35.148 25.3868 37.5166 30.2526 40.3081 34.8645C40.3504 34.9491 40.435 35.0337 40.4773 35.1607H43.4803C43.1419 34.6106 42.8036 34.1029 42.4652 33.5528C39.3776 28.4755 36.8398 23.0597 34.9365 17.4323C35.148 17.5169 35.3595 17.6015 35.6132 17.7708C35.6978 17.8131 35.7824 17.8977 35.9093 17.94C37.7281 18.9978 39.4199 19.0401 40.7311 19.0824C41.1117 19.0824 41.4501 19.1247 41.7462 19.1247C44.2416 19.3786 49.0634 21.6634 51.8972 25.8522C53.8429 28.6871 54.7734 32.2835 54.858 35.1184H57.438C57.3957 31.6488 56.1691 27.587 54.012 24.4136C50.8821 19.8017 45.5105 16.9245 42 16.5861C41.6193 16.5437 41.2386 16.5437 40.8157 16.5014C39.6737 16.4591 38.4471 16.4168 37.1782 15.6975C37.0936 15.6552 37.009 15.6129 36.9244 15.5706C36.29 15.1898 35.4441 14.682 34.3021 14.7667C32.9063 14.8936 31.5105 15.9514 30.9607 17.3053C30.6646 18.0246 30.7069 18.5324 30.7492 18.9978C30.7492 19.1247 30.7492 19.294 30.7492 19.5055C30.7492 20.6479 30.2416 21.4942 29.9033 22.0865C29.8187 22.2134 29.7764 22.3404 29.7341 22.425C29.1842 23.5251 28.5921 25.8945 28.5498 28.814C28.5498 30.5064 28.719 32.7912 29.438 35.1607H32.1873Z" fill="#F3C8A1"/>
    <path d="M70.8881 35.3298C70.8881 34.4836 70.9726 33.6374 71.0995 32.7911C72.1569 27.0368 76.8941 22.6365 78.6282 21.8748C78.7128 21.8325 78.7974 21.7902 78.882 21.7479C79.5164 21.494 80.6584 21.0286 81.6735 20.0555C80.024 25.0059 78.8397 30.1255 78.163 35.3298H80.743C81.5044 29.7024 82.8578 24.202 84.8035 18.8708C84.9303 19.04 85.0149 19.2516 85.0995 19.59C85.1418 19.6747 85.1841 19.8016 85.2264 19.8862C85.9877 21.8748 87.2566 22.9326 88.2717 23.8212C88.5678 24.075 88.8216 24.2866 89.0331 24.4981C90.7249 26.1906 92.9666 30.591 92.8397 35.3721H95.3775C95.5044 30.1255 93.1781 25.0059 90.8095 22.6788C90.5134 22.3826 90.2174 22.171 89.9213 21.8748C89.0331 21.1132 88.1026 20.3516 87.595 18.9554C87.5527 18.8708 87.5104 18.7861 87.5104 18.7015C87.2566 18.0245 86.9183 17.0937 85.9454 16.459C84.7612 15.6974 83.027 15.6551 81.7581 16.3744C81.1237 16.7552 80.7853 17.1783 80.5315 17.5591C80.447 17.686 80.3624 17.813 80.2355 17.9399C79.5164 18.8284 78.5859 19.1669 77.9938 19.4208C77.8669 19.4631 77.74 19.5054 77.6554 19.5477C75.4983 20.5209 69.8729 25.5559 68.6464 32.3257C68.4772 33.3412 68.3926 34.3143 68.3926 35.2875H70.8881V35.3298Z" fill="#F3C8A1"/>
    <path d="M31.2566 6.85445C35.5708 2.87719 41.9998 2.20021 43.8186 2.62333C43.9032 2.62333 43.9877 2.66564 44.0723 2.70795C44.7491 2.87719 45.8911 3.17337 47.3291 3.00413C42.8881 6.09284 38.7853 9.60467 35.021 13.4973C34.3865 14.1743 33.7521 14.8513 33.16 15.5282C33.5829 15.4436 34.0059 15.4436 34.4288 15.4436C35.1479 15.4436 35.8246 15.5282 36.459 15.7398C36.5859 15.6129 36.7128 15.4436 36.8397 15.3167C40.9847 11.0009 45.595 7.19294 50.5436 3.89266C50.5436 4.10422 50.459 4.31577 50.3745 4.65426C50.3322 4.73889 50.3322 4.86582 50.2899 4.95044C49.74 6.98138 50.0784 8.63152 50.3745 9.90085C50.459 10.2393 50.5436 10.5778 50.5859 10.874C50.9243 13.0742 50.2053 17.3476 47.7521 20.9864C48.8095 21.0287 49.74 21.1979 50.5013 21.4095C52.743 17.6438 53.5467 13.2857 53.1237 10.4932C53.0814 10.1124 52.9968 9.73161 52.8699 9.3085C52.6161 8.16609 52.3624 7.02369 52.743 5.58511C52.7853 5.50049 52.7853 5.41587 52.8276 5.33124C53.0391 4.65426 53.3352 3.68111 52.9122 2.58102C52.447 1.22706 51.0935 0.169277 49.6131 3.26633e-05C48.8518 -0.0845897 48.3442 0.084655 47.9213 0.211589C47.7944 0.2539 47.6252 0.296211 47.456 0.338522C46.3563 0.592389 45.3835 0.338522 44.7491 0.169277C44.6222 0.126966 44.4953 0.084655 44.3684 0.084655C43.1841 -0.169212 40.6887 -0.126901 37.8971 0.550078C35.5708 1.14243 32.2717 2.36946 29.4802 4.90813C26.9847 7.23525 25.4198 10.197 24.4893 13.0742C25.2083 13.5396 25.885 14.1743 26.5618 15.0205C27.3231 12.3549 28.7189 9.22387 31.2566 6.85445Z" fill="#F3C8A1"/>
    <path d="M45.3408 19.8018C45.3408 19.8864 45.3408 19.971 45.3408 20.0979C45.4677 20.0556 45.6369 20.0556 45.7638 20.0133C45.6369 19.971 45.4677 19.8864 45.3408 19.8018Z" fill="#F3C8A1"/>
    <path d="M51.6848 16.8823C51.3041 17.7285 50.7966 18.4478 50.1621 18.9979C53.1228 22.0443 56.3373 24.8368 59.7633 27.3755C62.8086 29.6603 66.0231 31.6912 69.3645 33.5529C69.3645 32.6221 69.4914 31.6912 69.7029 30.8027C66.7845 29.1526 63.9929 27.3332 61.286 25.3446C57.86 22.8059 54.6455 19.971 51.6848 16.8823Z" fill="#F3C8A1"/>
    <path d="M68.6042 12.5665C63.9939 9.47782 57.9033 8.80084 54.5196 9.77399C54.139 9.90093 53.7583 10.0279 53.3776 10.1548C52.7855 10.3664 52.151 10.5779 51.5166 10.7048C51.9396 11.3818 52.2356 12.228 52.3202 13.1589C53.0393 12.9896 53.716 12.7781 54.2658 12.5665C54.6042 12.4396 54.9426 12.3127 55.1964 12.228C57.6072 11.5511 62.9365 11.8472 67.1239 14.6821C70.719 17.0938 73.2991 21.1557 73.9758 24.1598C74.6948 23.6521 75.4985 23.2713 76.3021 22.9751C75.3716 19.294 72.3686 15.1052 68.6042 12.5665Z" fill="#F3C8A1"/>
    <path d="M86.6642 93H11.3772C10.7004 93 10.1506 92.4923 10.1083 91.8153L6.59772 45.95C4.90588 45.823 3.29863 45.1461 2.07204 43.9614C0.676272 42.6497 -0.085057 40.8726 -0.000464841 39.0956C0.168719 35.8799 3.08715 33.172 6.68231 32.9604C6.72461 32.9604 6.72461 32.9604 6.76691 32.9604H91.2745C91.3168 32.9604 91.3168 32.9604 91.3591 32.9604C94.9119 33.172 97.8727 35.8376 98.0418 39.0956C98.1264 40.8303 97.3651 42.6074 95.9693 43.9614C94.7427 45.1461 93.1355 45.823 91.4436 45.95L87.9331 91.8153C87.8485 92.4923 87.2986 93 86.6642 93ZM12.5192 90.4613H85.4376L88.9482 44.5537C88.9905 44.2152 89.1597 43.8767 89.4134 43.6652C89.6672 43.4536 90.0056 43.3267 90.3439 43.369C91.7397 43.5382 93.1355 43.0728 94.1506 42.0997C94.9965 41.2958 95.4618 40.238 95.4195 39.2225C95.3349 37.5724 93.6853 35.6684 91.1899 35.4991H6.76691C4.27144 35.6684 2.62189 37.5301 2.5373 39.2225C2.495 40.1957 2.96026 41.2958 3.80618 42.0997C4.82129 43.0728 6.21706 43.4959 7.61283 43.369C7.9512 43.3267 8.28957 43.4536 8.54334 43.6652C8.79712 43.8767 8.9663 44.2152 9.0086 44.5537L12.5192 90.4613Z" fill="#F3C8A1"/>
</svg>
