<svg width="125" height="71" viewBox="0 0 125 71" fill="none" xmlns="http://www.w3.org/2000/svg">
    <path d="M89.8719 56.062C89.5656 55.7508 89.2593 55.5285 88.953 55.2173C88.0342 54.417 87.0716 53.6168 86.5465 52.1497C86.5027 52.0607 86.459 51.9718 86.459 51.8829C86.4152 51.7051 86.3277 51.5272 86.2402 51.305C87.7279 46.2367 87.0278 40.9906 86.1965 39.3012L86.1527 39.2123C85.9777 38.9011 85.5839 38.1008 85.7589 37.345C85.8027 37.2117 85.8027 37.1672 85.8464 37.0783C85.9339 36.856 86.0652 36.5448 86.0214 36.0113C85.9777 35.1221 85.4964 34.2329 84.665 33.5216C83.9212 32.8992 83.0461 32.5435 82.171 32.4546C84.0087 30.5874 85.1463 28.7646 85.4089 28.0088L85.4526 27.8754C85.5839 27.5197 85.8464 26.7195 86.5028 26.2749C86.5903 26.2304 86.6778 26.186 86.7653 26.1415C86.9841 26.0526 87.2903 25.9192 87.6404 25.5636C88.253 24.8967 88.5155 23.9186 88.428 22.8516C88.3405 21.6068 87.7717 20.4064 86.8965 19.7395C86.284 19.2505 85.7589 19.1616 85.3214 19.0726C85.1463 19.0282 84.9713 19.0282 84.7963 18.9393C83.4836 18.5391 82.696 17.4721 82.171 16.7608C82.0835 16.6274 81.9959 16.5385 81.9084 16.4051C79.6331 13.5154 73.6824 12.0927 68.5193 13.0708C67.6442 9.78085 65.3251 6.0908 62.3497 3.69005C58.368 0.48905 52.8548 -0.533493 49.7044 0.133383C49.3544 0.222299 49.0043 0.311216 48.6543 0.400133C47.6479 0.711341 46.5978 0.978092 45.3289 0.711341C45.2414 0.711341 45.1539 0.666883 45.1101 0.666883C44.4975 0.533508 43.5787 0.266758 42.5723 0.711341C41.3471 1.24484 40.4283 2.57859 40.3408 3.9568C40.297 4.66814 40.472 5.15718 40.6033 5.5573C40.6471 5.69068 40.6908 5.82405 40.7346 6.00189C41.0409 6.97997 40.8221 7.86914 40.7346 8.4471C40.6908 8.58047 40.6908 8.71385 40.6471 8.80276C40.6033 9.02505 40.6033 9.29181 40.5595 9.60301C37.6279 10.0476 32.421 12.2261 29.3144 16.6274C29.0956 16.9386 28.8768 17.2943 28.6581 17.65C28.4393 17.4277 28.2643 17.1609 28.0455 16.9831C27.783 16.7164 27.5204 16.4941 27.2141 16.2718C26.3828 15.6049 25.5514 14.8936 25.0264 13.6932C24.9826 13.6043 24.9826 13.5598 24.9389 13.4709C24.7201 12.8929 24.37 11.9593 23.4074 11.3813C22.2698 10.67 20.6946 10.67 19.5132 11.3813C18.9006 11.737 18.6381 12.1816 18.3755 12.5373C18.288 12.6706 18.2005 12.7596 18.113 12.8929C17.5004 13.6932 16.6691 14.0489 16.144 14.3156C16.0127 14.3601 15.9252 14.4045 15.8377 14.449C13.9125 15.3826 8.88061 20.2286 7.91799 26.5416C6.64908 34.4108 11.8997 41.5241 13.3874 42.6356L13.4749 42.7245C13.6062 42.8134 13.825 42.9912 14.0875 43.258C13.4312 43.6581 12.7748 43.836 12.2935 43.9693C12.1623 44.0138 12.031 44.0582 11.8997 44.0582C10.6746 44.4584 8.48681 45.7477 6.34279 47.8817C4.54882 49.6155 2.22978 52.4609 1.04838 56.2843C-0.35179 60.819 0.348297 65.6206 1.52969 69.3106V71.0889H94.5975V68.6437C94.4225 63.3532 92.191 58.3738 89.8719 56.062ZM87.2466 57.2624C87.5529 57.5291 87.8154 57.7514 88.0342 57.9737C89.6969 59.6187 91.7972 63.8422 91.9722 68.5104H79.6331C80.4207 62.9086 81.7772 57.3958 83.7024 52.1052C83.8337 52.283 83.9212 52.5053 84.0087 52.861C84.0524 52.9499 84.0962 53.0833 84.14 53.1722C84.8838 55.2173 86.1965 56.3732 87.2466 57.2624ZM53.2049 16.8942C54.43 17.9612 55.6552 18.9837 56.9678 20.0063C55.2614 19.6951 53.5987 19.6951 52.0235 19.8284C51.936 18.8948 51.7609 18.0946 51.4984 17.3832C51.3671 17.0276 51.2359 16.7164 51.0608 16.3607C50.7546 15.6938 50.492 15.0269 50.3608 14.2267C51.2796 15.1603 52.1985 16.0495 53.2049 16.8942ZM67.3379 31.9656C67.3379 32.0545 67.3816 32.1434 67.3816 32.2323C67.4691 32.8103 67.6879 33.7884 68.2567 34.8109C64.0562 32.4102 59.6369 30.4095 55.0863 28.8535C51.1921 27.5197 47.1666 26.5416 43.0974 25.8748C43.9725 25.5191 44.5413 24.9856 44.8038 24.7633L44.8476 24.7189C45.8102 23.8741 52.8111 20.7621 58.9806 23.2517C63.8812 25.1634 66.9878 30.3206 67.3379 31.9656ZM80.5958 35.6556C80.8583 35.4778 81.0771 35.3444 81.2521 35.211C81.5146 34.9887 81.5584 34.9887 81.6897 34.9887C81.7772 34.9887 81.8647 34.9887 81.9522 34.9887C80.202 39.5679 77.9704 43.9693 75.3889 48.1484C74.6013 49.3932 73.7262 50.6381 72.8511 51.8385C71.3634 49.4377 69.2631 47.1259 66.8566 45.5254C66.244 45.1252 65.6314 44.7251 64.9751 44.4139C65.1063 44.1027 65.2814 43.7915 65.4564 43.4803C67.9067 39.1678 72.7635 36.1002 75.3451 36.3225C75.4326 36.3225 75.5639 36.3669 75.6952 36.3669C76.7453 36.5003 78.7143 36.7671 80.5958 35.6556ZM67.3816 64.2868C64.5813 62.6418 61.9122 60.8635 59.3306 58.9073C56.049 56.4177 52.8986 53.6613 50.0107 50.6825C50.5358 48.9931 50.8858 47.3482 50.9733 45.881C51.3671 45.7477 51.7609 45.6143 52.0672 45.4809C52.4173 45.3475 52.7673 45.2142 53.0298 45.1252C55.5239 44.4139 61.0371 44.7251 65.3689 47.7038C68.5193 49.8823 70.9696 53.3056 72.0197 56.1954C70.2695 58.2405 68.388 61.0413 67.3816 64.2868ZM39.4219 49.7489C39.0281 49.7045 38.6343 49.7045 38.1967 49.66C37.0154 49.6155 35.7464 49.5711 34.4338 48.8153C34.3463 48.7708 34.2588 48.7264 34.1712 48.6819C34.0837 48.6375 33.9962 48.593 33.9087 48.5041C33.9525 48.4596 33.9962 48.3707 34.0837 48.3262C38.3718 43.836 43.1411 39.8347 48.2605 36.3669C48.2605 36.5892 48.173 36.8115 48.0855 37.1672C48.0417 37.2561 48.0417 37.3895 47.998 37.4784C47.4291 39.6124 47.7792 41.3463 48.0855 42.68C48.173 43.0357 48.2605 43.3914 48.3043 43.7026C48.6105 45.6587 48.0855 49.2154 46.379 52.5498C43.9287 50.9493 41.3909 49.9268 39.4219 49.7489ZM63.3561 42.2355C63.1373 42.6356 62.9623 43.0357 62.7435 43.4358C58.8931 42.0576 54.8676 41.8798 52.3298 42.5911C51.936 42.7245 51.5422 42.8579 51.1484 42.9912C51.0608 43.0357 50.9296 43.0802 50.7983 43.1246C50.7546 42.8134 50.667 42.5022 50.5795 42.1465C50.317 40.9462 50.0545 39.7458 50.4483 38.2342C50.492 38.1453 50.492 38.0564 50.5358 37.9674C50.7546 37.2561 51.0608 36.2336 50.6233 35.0777C50.142 33.655 48.7418 32.5435 47.2104 32.3657C46.4228 32.2768 45.8977 32.4546 45.4602 32.588C45.3289 32.6324 45.1539 32.6769 44.9788 32.7214C44.1475 32.9437 43.4036 32.8547 42.7911 32.7214C42.5723 31.6544 42.1785 30.3206 41.0846 29.1647C40.8658 28.9424 40.6908 28.7646 40.5158 28.6312C40.2533 28.4089 40.2095 28.3644 40.1657 28.2311C40.122 28.1422 40.122 28.0532 40.122 27.9643C44.9351 28.5867 49.6607 29.6537 54.255 31.2098C58.8493 32.7658 63.2686 34.8109 67.4254 37.2561C65.8502 38.6343 64.4062 40.3682 63.3561 42.2355ZM57.6679 20.1396H57.6242H57.6679ZM48.7856 17.4277C48.9168 17.7389 49.0481 18.0056 49.1356 18.2724C49.3106 18.8059 49.4419 19.4728 49.5294 20.2286C46.379 20.8954 43.9725 22.1403 43.2286 22.7627L43.1411 22.8516C42.8786 23.0739 42.2222 23.6519 41.4347 23.6963C41.3034 23.6963 41.2596 23.6963 41.1284 23.6963C40.9096 23.6519 40.5595 23.6074 40.0782 23.7852C39.2469 24.052 38.503 24.7633 38.0655 25.7414C37.5404 26.8973 37.4529 28.1866 37.8467 29.2092C38.1092 29.9205 38.5468 30.2762 38.8968 30.5874C39.0281 30.7207 39.1594 30.8097 39.2906 30.943C39.6844 31.3432 39.947 31.8322 40.122 32.3212C38.8093 32.3212 37.0154 32.4991 35.1339 32.9881C34.4775 33.1659 33.7337 33.3882 32.9899 33.655C34.39 30.5874 35.9652 27.6087 37.7592 24.7633C40.6471 20.1841 44.0162 15.9606 47.8229 12.0927C47.8229 12.2261 47.8229 12.4039 47.7792 12.6262C47.7792 12.7151 47.7792 12.8485 47.7354 12.9374C47.6479 14.8491 48.3043 16.2718 48.7856 17.4277ZM28.2643 39.5235C32.7273 35.3444 39.3781 34.6331 41.2596 35.0777C41.3471 35.0777 41.4347 35.1221 41.5222 35.1666C42.2223 35.3444 43.4036 35.6556 44.8913 35.4778C40.297 38.6788 36.0527 42.3688 32.1585 46.459C31.6772 46.948 31.2396 47.4371 30.8021 47.9706C29.5769 48.3262 28.483 49.3043 28.0017 50.5047C27.6954 51.2605 27.7392 51.794 27.783 52.283C27.783 52.4164 27.783 52.5942 27.783 52.8165C27.783 53.3056 27.6954 53.7946 27.5642 54.1948C26.9516 52.0163 26.0765 50.1935 25.1139 48.9487C24.8513 48.6375 24.5888 48.3262 24.2825 48.015C24.1075 47.7927 23.8887 47.5705 23.7137 47.3482C24.5013 44.6362 25.9015 41.7464 28.2643 39.5235ZM22.3135 49.7934C22.5761 50.0601 22.7948 50.3269 23.0136 50.5936C24.2825 52.1941 25.6389 55.7953 25.6827 59.752C25.5514 60.5968 25.5077 61.5748 25.4639 62.5529C25.4202 62.7308 25.4202 62.9531 25.3764 63.1309C24.9826 64.9981 24.2825 66.8654 23.3637 68.4659H11.5059C11.8997 66.1985 12.3373 63.9311 12.9061 61.6638C14.3938 55.6174 16.5816 49.7045 19.3819 44.1472C19.4694 44.325 19.5569 44.5917 19.6007 44.903C19.6444 45.0363 19.6444 45.1252 19.6882 45.2142C20.2133 47.4815 21.3947 48.7708 22.3135 49.7934ZM28.133 62.8641C28.2643 61.8416 28.3518 60.8635 28.3518 59.841C28.5268 58.5961 28.8331 57.618 29.0956 57.0845C29.1394 56.9956 29.1831 56.9067 29.2269 56.8178C29.5769 56.1954 30.1895 55.0839 30.3645 53.6168C32.246 58.8184 34.6088 63.7978 37.4092 68.5104H28.9644C28.3518 66.5986 28.133 64.6425 28.133 62.8641ZM39.8595 67.5323C36.6653 62.1973 34.04 56.5066 32.071 50.5936C32.2898 50.6825 32.5085 50.7715 32.7711 50.9493C32.8586 50.9937 32.9461 51.0827 33.0774 51.1271C34.9588 52.2386 36.7091 52.283 38.0655 52.3275C38.4593 52.3275 38.8093 52.372 39.1156 52.372C41.6972 52.6387 46.6853 55.0395 49.6169 59.4408C51.4546 62.1973 52.4173 65.6206 52.636 68.4659H40.472C40.297 68.1991 40.0782 67.8879 39.8595 67.5323ZM51.8047 57.9737C50.8421 56.551 49.7044 55.3062 48.4793 54.2392C48.6105 53.9725 48.7856 53.6613 48.9168 53.3945C51.6734 56.1509 54.605 58.7295 57.7117 61.0858C60.5995 63.2643 63.6187 65.2649 66.7253 67.0432C66.6378 67.5323 66.594 68.0658 66.594 68.5548H55.2614C55.1301 65.0426 53.905 61.0858 51.8047 57.9737ZM69.4819 66.7765C70.5758 60.7301 75.4764 56.1065 77.2703 55.3062C77.3579 55.2618 77.4454 55.2173 77.5329 55.1728C78.1892 54.9061 79.3706 54.417 80.4207 53.3945C78.8018 58.3294 77.6641 63.3976 76.9203 68.5548H69.2631C69.3069 67.9324 69.3944 67.3544 69.4819 66.7765ZM83.9212 40.4127L83.9649 40.5016C84.3587 41.3018 85.0588 45.1697 84.2275 49.2599C83.0461 48.7708 81.6021 48.8153 80.5082 49.4822C79.8519 49.8823 79.5019 50.3269 79.2393 50.727C79.1518 50.8604 79.0643 50.9937 78.9331 51.1271C78.1892 52.0607 77.2266 52.4164 76.614 52.6832C76.4827 52.7276 76.3515 52.7721 76.264 52.8165C75.7827 53.0388 75.1263 53.439 74.3825 54.0614C75.4764 52.5498 76.5265 51.0382 77.5329 49.4822C79.7644 45.97 81.6897 42.2355 83.3086 38.412C83.3961 39.3457 83.7899 40.1015 83.9212 40.4127ZM83.0898 27.1196L83.0461 27.2085C82.7398 28.0977 80.202 31.6988 76.264 33.9217C76.1765 33.9217 76.089 33.8773 76.0014 33.8773C75.8264 33.8773 75.6952 33.8328 75.6076 33.8328C74.3387 33.6994 72.8511 34.0551 71.3634 34.722C71.2321 34.5886 71.1446 34.4552 71.0133 34.3663C70.9258 34.2774 70.8383 34.144 70.707 34.0107C70.0507 33.2104 69.9194 32.3212 69.7882 31.7433C69.7444 31.6099 69.7444 31.4765 69.7007 31.3876C69.5694 30.8986 69.3069 30.1428 68.8693 29.2981C69.9632 29.1202 71.0133 28.9424 72.1072 28.7201C76.1327 27.8754 80.1145 26.7195 83.9649 25.2524C83.4399 26.0081 83.1773 26.8084 83.0898 27.1196ZM71.8009 15.3381C75.4326 15.3381 78.8018 16.5385 79.9832 18.0501C80.0269 18.139 80.1145 18.2279 80.202 18.3169C80.8145 19.1616 81.9959 20.7621 84.0962 21.3845C84.4025 21.4734 84.665 21.5179 84.84 21.5623C85.1901 21.6068 85.2338 21.6512 85.3214 21.7401C85.4089 21.7846 85.4526 21.8735 85.4964 21.9624C81.0333 23.8741 76.3515 25.3413 71.6259 26.2749C70.2257 26.5416 68.8256 26.8084 67.4254 26.9862C65.7627 24.7189 63.3124 22.3181 60.1182 20.9399C61.6497 18.9837 64.5375 16.6719 68.0379 15.7827C69.3069 15.516 70.5758 15.3381 71.8009 15.3381ZM44.4538 3.15655C44.5413 3.20101 44.6288 3.20101 44.7601 3.24547C46.6415 3.69005 48.1292 3.24547 49.3106 2.8898C49.6169 2.80088 49.9232 2.71197 50.1857 2.66751C52.4173 2.22293 57.1866 2.84534 60.8183 5.73514C63.5311 7.86914 65.4564 11.1591 66.1565 13.7821C63.3124 14.8046 60.8183 16.583 59.0681 18.4502C57.6242 17.3388 56.224 16.2273 54.8238 15.0269C53.0298 13.4709 51.3234 11.7815 49.7044 10.0476C49.5294 9.82531 49.3106 9.60301 49.0919 9.38072C47.2541 7.3801 45.5477 5.24609 43.9287 3.06763C44.1037 3.06763 44.2788 3.11209 44.4538 3.15655ZM43.0974 9.02505C43.2286 8.4471 43.4036 7.46901 43.2724 6.26864C43.9287 7.11335 44.585 7.95806 45.2851 8.75831C45.1539 8.84722 45.0226 8.89168 44.8913 8.9806C44.7601 9.02506 44.6288 9.11397 44.4975 9.20289C43.9725 9.46964 43.4912 9.5141 43.0098 9.55856C43.0098 9.46964 43.0098 9.33626 43.0536 9.24735C43.0536 9.20289 43.0536 9.11397 43.0974 9.02505ZM31.2834 18.139C34.3463 13.8266 40.0345 12.0038 41.6972 12.0482C41.7847 12.0482 41.8722 12.0482 41.9597 12.0482C42.5285 12.0927 43.5349 12.1371 44.6726 11.8259C41.3471 15.3826 38.3718 19.2505 35.7464 23.3406C34.565 25.2079 33.5149 27.0752 32.5085 29.0313C32.5523 25.6969 31.5897 22.407 30.2333 19.9618C30.4958 19.3394 30.8458 18.717 31.2834 18.139ZM22.401 13.871C22.4885 14.0044 22.5323 14.1378 22.6198 14.3601C22.6636 14.449 22.7073 14.5379 22.7511 14.6268C23.4949 16.4496 24.6763 17.4277 25.6389 18.2279C25.9015 18.4502 26.1202 18.6281 26.339 18.8059C28.0017 20.4064 30.2333 24.7189 30.0145 29.387C29.8832 31.8322 29.0956 34.2774 28.0892 36.2336C27.5642 36.6337 27.0391 37.0783 26.514 37.5229C24.5451 39.3901 23.1449 41.6575 22.1385 44.0138C21.9635 43.3469 21.6572 42.5022 20.8696 41.8353C20.3008 41.3463 19.6007 41.0351 18.8568 40.9462C18.6818 37.2561 18.7693 33.5216 19.1194 29.8316C19.6007 24.4076 20.6946 19.0726 22.401 13.871ZM10.3245 26.9418C11.1121 21.6957 15.4002 17.4721 16.8879 16.7164C16.9316 16.6719 17.0191 16.6719 17.1066 16.6274C17.6317 16.4051 18.5506 16.005 19.3819 15.1603C18.0255 19.8729 17.0629 24.6744 16.5816 29.5648C16.1878 33.4327 16.1003 37.3895 16.319 41.3018C16.144 41.3907 16.0127 41.4797 15.8815 41.5686C15.4877 41.124 15.0939 40.8128 14.8751 40.6794L14.8313 40.635C13.8687 39.8347 9.31816 33.6105 10.3245 26.9418ZM3.54244 56.9956C5.33642 51.1271 10.8058 47.1703 12.6436 46.5924C12.7311 46.5479 12.8186 46.5479 12.9061 46.5035C13.6062 46.3256 14.7876 45.97 15.969 45.0808C13.5624 50.1935 11.681 55.573 10.3245 61.0858C9.71196 63.531 9.23065 66.0207 8.83685 68.5548H4.11126C3.01738 65.3983 2.27354 61.1303 3.54244 56.9956Z" fill="#F3C8A1"/>
    <path d="M123.708 52.1941C123.183 51.7051 122.702 51.5717 122.308 51.4383C122.177 51.3939 122.046 51.3494 121.871 51.305C120.952 50.9048 120.383 50.238 119.989 49.7489C119.902 49.66 119.814 49.5711 119.77 49.4822C118.327 47.8372 112.376 44.2805 106.119 45.1252C98.3303 46.1478 93.1234 53.2611 92.467 54.995L92.4233 55.1284C92.292 55.484 92.0295 56.2843 91.3294 56.6844C91.2419 56.7289 91.1544 56.7733 91.0669 56.8178C90.8481 56.9067 90.5418 57.0401 90.1918 57.3958C89.5792 58.0626 89.2729 58.9962 89.3604 60.1077C89.4479 61.3525 89.973 62.5529 90.8481 63.2643C91.4169 63.7533 91.9857 63.8867 92.4233 63.9756C92.5983 64.02 92.7733 64.0645 92.9484 64.109C94.2173 64.5091 95.0049 65.6205 95.5299 66.3319C95.6174 66.4653 95.705 66.5986 95.7925 66.6875C97.5864 69.0438 101.831 70.511 106.119 70.511C107.519 70.511 108.875 70.3776 110.188 70.0664C115.132 68.866 119.333 65.1315 120.821 62.2417C120.996 61.9305 121.127 61.5748 121.258 61.2192C121.652 60.2411 122.089 59.2185 123.096 58.3738C123.14 58.3294 123.227 58.2849 123.271 58.2405C123.752 57.8403 124.54 57.2624 124.802 56.1509C125.196 54.7282 124.715 53.1722 123.708 52.1941ZM94.7861 55.8397C95.2237 54.6393 99.8617 48.4596 106.425 47.6149C111.632 46.948 116.795 49.9267 117.889 51.1716C117.933 51.216 117.976 51.305 118.064 51.3494C118.458 51.794 119.07 52.5942 120.077 53.1722C115.264 53.1277 110.451 53.5723 105.681 54.4615C101.656 55.2173 97.6302 56.3287 93.7797 57.7514C94.3485 56.9956 94.6548 56.2398 94.7423 55.9286L94.7861 55.8397ZM121.521 56.2843C119.989 57.5291 119.42 58.9518 118.939 60.1077C118.808 60.4189 118.677 60.7301 118.589 60.9524C117.539 62.9975 114.082 66.4208 109.619 67.4878C104.85 68.6437 99.3367 67.1321 97.7177 65.0426C97.6739 64.9537 97.5864 64.8648 97.4989 64.7758C96.8863 63.8867 95.705 62.2862 93.6485 61.6193C93.3422 61.5304 93.0796 61.4859 92.9046 61.4415C92.5546 61.3525 92.5108 61.3525 92.4233 61.2636C92.3358 61.2192 92.292 61.1303 92.2483 61.0413C96.7551 59.2185 101.437 57.8403 106.163 56.9512C111.413 55.9731 116.795 55.573 122.133 55.7508C122.046 55.8397 121.914 55.9731 121.739 56.1065C121.652 56.1509 121.608 56.1954 121.521 56.2843Z" fill="#F3C8A1"/>
</svg>
