<svg width="1695" height="1589" viewBox="0 0 1695 1589" fill="none" xmlns="http://www.w3.org/2000/svg">
    <path d="M1161.5 10C1027.21 4.14031 202.954 -27.0418 34.1495 247.859C22.5126 266.803 -8.11063 316.667 13.2084 369.224C73.003 516.62 483.538 542.922 670.962 554.928C1156.19 586.016 1411.64 497.677 1510.44 605.101C1553.74 652.174 1556.68 725.681 1515.89 772.167C1431.19 868.694 1203.37 796.927 759.714 826.294C562.304 839.364 181.129 864.594 113.088 1010.76C110.065 1017.26 90.1118 1062.12 113.736 1109.05C134.782 1150.84 212.673 1238.55 719.105 1262.34C1295.14 1289.39 1605.59 1195.23 1675.84 1292.07C1709.25 1338.14 1674.24 1408.04 1629.03 1446.38C1532.03 1528.63 1350.5 1614 1225.5 1573" stroke="#1D1D1B" stroke-width="10" stroke-linecap="round" stroke-linejoin="round" stroke-dasharray="141.73 85.04"/>
    <g clip-path="url(#clip0_0:1)">
        <path d="M580.2 1520.6C578 1521.4 576.4 1523.7 576.1 1526C575.9 1527.6 576.5 1528.4 576.9 1530.1C577.9 1534 576.7 1537.3 576.3 1538.7C575.2 1543.5 576.8 1560 587.1 1571.1C599.5 1584.3 620.5 1585.5 625 1584.3C625.9 1584.1 629.1 1582.9 632.3 1584.3C633.6 1584.8 633.7 1585.3 634.7 1585.5C637.9 1585.9 642 1582.2 642.3 1578.4C642.4 1576.7 641.6 1575.9 641 1574C639.3 1569 641.4 1564.3 642 1562.3C644.4 1554.1 638.2 1539 628.1 1530.2C618.4 1521.8 605.2 1519.2 598.4 1520.2C595 1520.7 590.9 1522.5 585.6 1521C583.9 1520.6 582.2 1519.9 580.2 1520.6Z" fill="#A66D46" stroke="#23242A" stroke-width="6.0269" stroke-miterlimit="10"/>
        <path d="M577.8 1522.2C584.4 1532.5 593.8 1545.1 607 1557.8C618.7 1569 630.2 1577.3 639.8 1583.2" fill="#A66D46"/>
        <path d="M577.8 1522.2C584.4 1532.5 593.8 1545.1 607 1557.8C618.7 1569 630.2 1577.3 639.8 1583.2" stroke="#23242A" stroke-width="6.0269" stroke-miterlimit="10"/>
    </g>
    <g clip-path="url(#clip1_0:1)">
        <path d="M1410.2 551.6C1408 552.4 1406.4 554.7 1406.1 557C1405.9 558.6 1406.5 559.4 1406.9 561.1C1407.9 565 1406.7 568.3 1406.3 569.7C1405.2 574.5 1406.8 591 1417.1 602.1C1429.5 615.3 1450.5 616.5 1455 615.3C1455.9 615.1 1459.1 613.9 1462.3 615.3C1463.6 615.8 1463.7 616.3 1464.7 616.5C1467.9 616.9 1472 613.2 1472.3 609.4C1472.4 607.7 1471.6 606.9 1471 605C1469.3 600 1471.4 595.3 1472 593.3C1474.4 585.1 1468.2 570 1458.1 561.2C1448.4 552.8 1435.2 550.2 1428.4 551.2C1425 551.7 1420.9 553.5 1415.6 552C1413.9 551.6 1412.2 550.9 1410.2 551.6Z" fill="#A66D46" stroke="#23242A" stroke-width="6.0269" stroke-miterlimit="10"/>
        <path d="M1407.8 553.2C1414.4 563.5 1423.8 576.1 1437 588.8C1448.7 600 1460.2 608.3 1469.8 614.2" fill="#A66D46"/>
        <path d="M1407.8 553.2C1414.4 563.5 1423.8 576.1 1437 588.8C1448.7 600 1460.2 608.3 1469.8 614.2" stroke="#23242A" stroke-width="6.0269" stroke-miterlimit="10"/>
    </g>
    <g clip-path="url(#clip2_0:1)">
        <path d="M26.1999 625.6C23.9999 626.4 22.3999 628.7 22.0999 631C21.8999 632.6 22.4999 633.4 22.8999 635.1C23.8999 639 22.6999 642.3 22.2999 643.7C21.1999 648.5 22.7999 665 33.0999 676.1C45.4999 689.3 66.4999 690.5 70.9999 689.3C71.8999 689.1 75.0999 687.9 78.2999 689.3C79.5999 689.8 79.6999 690.3 80.6999 690.5C83.8999 690.9 87.9999 687.2 88.2999 683.4C88.3999 681.7 87.5999 680.9 86.9999 679C85.2999 674 87.3999 669.3 87.9999 667.3C90.3999 659.1 84.1999 644 74.0999 635.2C64.3999 626.8 51.1999 624.2 44.3999 625.2C40.9999 625.7 36.8999 627.5 31.5999 626C29.8999 625.6 28.1999 624.9 26.1999 625.6Z" fill="#A66D46" stroke="#23242A" stroke-width="6.0269" stroke-miterlimit="10"/>
        <path d="M23.7998 627.2C30.3998 637.5 39.7998 650.1 52.9998 662.8C64.6998 674 76.1998 682.3 85.7998 688.2" fill="#A66D46"/>
        <path d="M23.7998 627.2C30.3998 637.5 39.7998 650.1 52.9998 662.8C64.6998 674 76.1998 682.3 85.7998 688.2" stroke="#23242A" stroke-width="6.0269" stroke-miterlimit="10"/>
    </g>
    <g clip-path="url(#clip3_0:1)">
        <path d="M1089.82 1123.01C1089.62 1120.68 1087.81 1118.54 1085.67 1117.65C1084.17 1117.05 1083.25 1117.42 1081.5 1117.36C1077.47 1117.32 1074.6 1115.31 1073.35 1114.56C1069 1112.25 1052.65 1109.53 1039.26 1116.61C1023.3 1125.17 1016.7 1145.14 1016.7 1149.8C1016.66 1150.72 1016.99 1154.12 1014.81 1156.85C1013.99 1157.98 1013.48 1157.94 1013.03 1158.86C1011.81 1161.84 1014.33 1166.76 1017.92 1168.04C1019.54 1168.57 1020.52 1168.01 1022.51 1167.92C1027.78 1167.57 1031.77 1170.82 1033.55 1171.91C1040.85 1176.35 1057.04 1174.27 1068.15 1166.79C1078.78 1159.6 1084.7 1147.52 1085.5 1140.69C1085.9 1137.28 1085.22 1132.85 1088.04 1128.12C1088.87 1126.58 1089.98 1125.12 1089.82 1123.01Z" fill="#A66D46" stroke="#23242A" stroke-width="6.0269" stroke-miterlimit="10"/>
        <path d="M1088.9 1120.28C1077.24 1123.99 1062.64 1129.81 1046.95 1139.27C1033.11 1147.67 1022.11 1156.63 1013.93 1164.38" fill="#A66D46"/>
        <path d="M1088.9 1120.28C1077.24 1123.99 1062.64 1129.81 1046.95 1139.27C1033.11 1147.67 1022.11 1156.63 1013.93 1164.38" stroke="#23242A" stroke-width="6.0269" stroke-miterlimit="10"/>
    </g>
    <defs>
        <clipPath id="clip0_0:1">
            <rect width="72.5" height="71.5" fill="white" transform="translate(573 1517)"/>
        </clipPath>
        <clipPath id="clip1_0:1">
            <rect width="72.5" height="71.5" fill="white" transform="translate(1403 548)"/>
        </clipPath>
        <clipPath id="clip2_0:1">
            <rect width="72.5" height="71.5" fill="white" transform="translate(19 622)"/>
        </clipPath>
        <clipPath id="clip3_0:1">
            <rect width="72.5" height="71.5" fill="white" transform="translate(1095.16 1116.99) rotate(105)"/>
        </clipPath>
    </defs>
</svg>
