<svg width="51" height="51" viewBox="0 0 51 51" fill="none" xmlns="http://www.w3.org/2000/svg">
    <path d="M19.407 48.5046C6.65895 45.0887 -0.979418 31.8587 2.4364 19.1107C5.85222 6.36266 19.0823 -1.27571 31.8303 2.14011C44.5783 5.55593 52.2167 18.786 48.8008 31.534C45.385 44.282 32.155 51.9204 19.407 48.5046ZM38.4566 19.6875C39.2175 18.5871 39.1044 17.1042 38.1852 16.1319C36.9245 14.7984 34.7476 14.9981 33.7506 16.5388L26.4932 27.7533C25.8255 28.7851 24.3938 28.9762 23.4788 28.1556L16.5304 21.924C15.0614 20.6067 12.7194 21.303 12.2087 23.2088C11.9378 24.2198 12.2884 25.2954 13.103 25.9525L23.2445 34.1343C25.0543 35.5944 27.7235 35.2088 29.0461 33.2962L38.4566 19.6875Z" stroke="#D1DCE5" stroke-width="2"/>
</svg>
