<svg width="158" height="150" viewBox="0 0 158 150" fill="none" xmlns="http://www.w3.org/2000/svg">
<g clip-path="url(#clip0)">
<path d="M13.0927 56.7107C11.2515 51.7971 9.75132 44.768 11.8653 37.9436C14.6611 28.9354 23.1851 22.8617 26.0491 21.9745C26.1855 21.9063 26.3219 21.9063 26.4583 21.838C27.5493 21.5651 29.3905 21.0191 31.2317 19.6542C27.4811 27.5023 24.5489 35.7598 22.435 44.222C21.4121 48.3167 20.5938 52.5478 19.9119 56.7107H24.0716C24.6853 52.8208 25.4354 48.9991 26.3901 45.2457C28.7086 35.9645 32.1182 26.8881 36.4824 18.3576C36.6188 18.6306 36.7552 19.04 36.8234 19.5177C36.8916 19.7225 36.8916 19.859 36.9598 19.9955C37.7781 23.2712 39.6193 25.2502 41.1195 26.8881C41.5286 27.2976 41.8696 27.707 42.2105 28.1165C44.7336 31.3239 47.5295 39.3767 45.9611 47.4295C45.2792 50.7734 43.9153 53.9809 42.2105 56.7107H46.9839C48.3478 54.0491 49.4388 51.1147 50.0526 48.2484C51.8256 39.445 49.0297 30.0273 45.4837 25.5915C45.0746 25.1137 44.6654 24.636 44.1881 24.1583C42.8925 22.7935 41.5968 21.3603 41.0513 19.04C40.9831 18.9036 40.9831 18.7671 40.9149 18.6306C40.6421 17.4704 40.3012 15.9691 38.801 14.6724C37.028 13.1711 34.3003 12.7616 32.1182 13.717C31.0271 14.1947 30.4134 14.8089 29.936 15.4231C29.7997 15.6278 29.5951 15.7643 29.3905 15.9691C28.0949 17.1975 26.5265 17.6752 25.5036 17.9481C25.299 18.0164 25.0944 18.0846 24.8899 18.0846C22.9805 18.6988 19.5709 20.6779 16.2295 23.9536C13.4337 26.6151 9.81951 30.9827 7.97834 36.8517C5.7962 43.6761 6.81908 51.0464 8.72844 56.7107H13.0927Z" fill="#F3C8A1"/>
<path d="M51.8938 56.7106C49.0297 48.9991 50.3936 40.5368 51.6892 38.08C51.7574 37.9436 51.8256 37.8071 51.8938 37.6706C52.4393 36.7152 53.394 35.0091 53.6668 32.757C56.6672 40.9463 60.4859 48.7943 64.9866 56.2329C65.0548 56.3694 65.1911 56.5059 65.2593 56.7106H70.1009C69.5554 55.8234 69.0099 55.0045 68.4643 54.1174C63.4864 45.9281 59.3949 37.1929 56.3262 28.1164C56.6672 28.2529 57.0081 28.3894 57.4173 28.6624C57.5537 28.7306 57.6901 28.8671 57.8946 28.9354C60.8269 30.6415 63.5545 30.7097 65.6685 30.778C66.2822 30.778 66.8277 30.8462 67.3051 30.8462C71.3284 31.2557 79.1022 34.9408 83.6711 41.697C86.8079 46.2693 88.3081 52.07 88.4445 56.6424H92.6042C92.536 51.0464 90.5584 44.495 87.0807 39.3767C82.0345 31.9381 73.3741 27.2975 67.7142 26.7516C67.1005 26.6833 66.4868 26.6833 65.8049 26.6151C63.9637 26.5468 61.9861 26.4786 59.9404 25.3184C59.804 25.2502 59.6676 25.182 59.5312 25.1137C58.5084 24.4995 57.1445 23.6806 55.3034 23.8171C53.053 24.0218 50.8027 25.7279 49.9162 27.9117C49.4389 29.0719 49.5071 29.8908 49.5753 30.6415C49.5753 30.8462 49.5753 31.1192 49.5753 31.4604C49.5753 33.303 48.757 34.6679 48.2114 35.6233C48.075 35.828 48.0069 36.0327 47.9387 36.1692C47.0522 37.9436 46.0975 41.7652 46.0293 46.474C46.0293 49.2038 46.3021 52.889 47.4613 56.7106H51.8938Z" fill="#F3C8A1"/>
<path d="M114.289 56.9837C114.289 55.6188 114.426 54.2539 114.63 52.889C116.335 43.6079 123.972 36.5105 126.768 35.2821C126.905 35.2139 127.041 35.1456 127.177 35.0774C128.2 34.6679 130.041 33.9172 131.678 32.3476C129.019 40.3321 127.109 48.5897 126.018 56.9837H130.178C131.405 47.9072 133.587 39.0355 136.724 30.4368C136.929 30.7098 137.065 31.051 137.202 31.5969C137.27 31.7334 137.338 31.9382 137.406 32.0746C138.634 35.2821 140.679 36.9882 142.316 38.4213C142.793 38.8308 143.202 39.172 143.543 39.5132C146.271 42.243 149.885 49.3403 149.681 57.0519H153.772C153.977 48.5897 150.226 40.3321 146.407 36.5787C145.93 36.101 145.453 35.7598 144.975 35.2821C143.543 34.0537 142.043 32.8253 141.225 30.5733C141.157 30.4368 141.088 30.3003 141.088 30.1638C140.679 29.0719 140.134 27.5705 138.565 26.5469C136.656 25.3185 133.86 25.2503 131.814 26.4104C130.792 27.0246 130.246 27.707 129.837 28.3212C129.7 28.526 129.564 28.7307 129.36 28.9354C128.2 30.3685 126.7 30.9145 125.745 31.324C125.541 31.3922 125.336 31.4604 125.2 31.5287C121.722 33.0983 112.653 41.2193 110.675 52.1383C110.402 53.7762 110.266 55.3458 110.266 56.9154H114.289V56.9837Z" fill="#F3C8A1"/>
<path d="M50.3936 11.0555C57.3491 4.6406 67.7142 3.5487 70.6465 4.23113C70.7829 4.23113 70.9193 4.29938 71.0556 4.36762C72.1467 4.6406 73.9879 5.1183 76.3064 4.84533C69.1463 9.82713 62.5317 15.4914 56.4626 21.7698C55.4398 22.8617 54.4169 23.9536 53.4622 25.0455C54.1441 24.909 54.826 24.909 55.5079 24.909C56.6672 24.909 57.7583 25.0455 58.7811 25.3867C58.9857 25.182 59.1903 24.909 59.3949 24.7043C66.0776 17.7434 73.5105 11.6015 81.489 6.27845C81.489 6.61967 81.3526 6.96089 81.2162 7.50684C81.148 7.64333 81.148 7.84806 81.0798 7.98455C80.1933 11.2603 80.7388 13.9218 81.2162 15.9691C81.3526 16.515 81.489 17.061 81.5571 17.5387C82.1027 21.0874 80.9434 27.98 76.9883 33.849C78.6931 33.9172 80.1933 34.1902 81.4208 34.5314C85.0349 28.4577 86.3306 21.4286 85.6486 16.9245C85.5805 16.3103 85.4441 15.6961 85.2395 15.0137C84.8303 13.1711 84.4212 11.3285 85.0349 9.00821C85.1031 8.87172 85.1031 8.73523 85.1713 8.59874C85.5123 7.50684 85.9896 5.93723 85.3077 4.16289C84.5576 1.97909 82.3755 0.272991 79.9887 1.52737e-05C78.7613 -0.136472 77.943 0.136503 77.2611 0.341235C77.0565 0.409478 76.7837 0.477722 76.511 0.545966C74.738 0.955429 73.1696 0.545966 72.1467 0.272991C71.9421 0.204747 71.7376 0.136503 71.533 0.136503C69.6236 -0.27296 65.6003 -0.204716 61.0997 0.887185C57.3491 1.8426 52.0302 3.82167 47.5295 7.9163C43.5062 11.6697 40.9831 16.4468 39.4829 21.0874C40.6422 21.8381 41.7332 22.8617 42.8243 24.2266C44.0517 19.9272 46.3021 14.8772 50.3936 11.0555Z" fill="#F3C8A1"/>
<path d="M73.1013 31.9382C73.1013 32.0747 73.1013 32.2111 73.1013 32.4159C73.3059 32.3476 73.5787 32.3476 73.7832 32.2794C73.5787 32.2111 73.3059 32.0747 73.1013 31.9382Z" fill="#F3C8A1"/>
<path d="M83.3301 27.2293C82.7164 28.5942 81.8981 29.7543 80.8752 30.6415C85.6487 35.5551 90.8312 40.0592 96.3548 44.1538C101.265 47.839 106.447 51.1147 111.834 54.1174C111.834 52.616 112.039 51.1147 112.38 49.6815C107.675 47.02 103.174 44.0855 98.8096 40.8781C93.2861 36.7834 88.1036 32.2111 83.3301 27.2293Z" fill="#F3C8A1"/>
<path d="M110.607 20.2684C103.174 15.2866 93.3543 14.1947 87.899 15.7643C87.2852 15.9691 86.6715 16.1738 86.0578 16.3785C85.1031 16.7198 84.0802 17.061 83.0574 17.2657C83.7393 18.3576 84.2166 19.7225 84.353 21.2239C85.5123 20.9509 86.6033 20.6097 87.4898 20.2684C88.0354 20.0637 88.5809 19.859 88.99 19.7225C92.877 18.6306 101.469 19.1083 108.22 23.6806C114.016 27.5705 118.176 34.1219 119.267 38.9673C120.426 38.1483 121.722 37.5341 123.018 37.0564C121.517 31.1192 116.676 24.3631 110.607 20.2684Z" fill="#F3C8A1"/>
<path d="M139.725 150H18.3436C17.2525 150 16.366 149.181 16.2978 148.089L10.6379 74.1128C7.91025 73.9081 5.31896 72.8162 3.34141 70.9054C1.09108 68.7898 -0.136365 65.9236 1.78618e-05 63.0573C0.272784 57.8708 4.97801 53.5032 10.7743 53.162C10.8425 53.162 10.8425 53.162 10.9107 53.162H147.158C147.226 53.162 147.226 53.162 147.294 53.162C153.022 53.5032 157.795 57.8026 158.068 63.0573C158.205 65.8553 156.977 68.7216 154.727 70.9054C152.749 72.8162 150.158 73.9081 147.43 74.1128L141.77 148.089C141.634 149.181 140.748 150 139.725 150ZM20.1847 145.905H137.747L143.407 71.8608C143.475 71.3149 143.748 70.7689 144.157 70.4277C144.566 70.0865 145.112 69.8817 145.657 69.95C147.908 70.2229 150.158 69.4723 151.795 67.9027C153.158 66.606 153.909 64.8999 153.84 63.2621C153.704 60.6006 151.044 57.5296 147.021 57.2566H10.9107C6.88737 57.5296 4.2279 60.5323 4.09152 63.2621C4.02332 64.8317 4.77343 66.606 6.13726 67.9027C7.77386 69.4723 10.0242 70.1547 12.2745 69.95C12.82 69.8817 13.3656 70.0865 13.7747 70.4277C14.1839 70.7689 14.4566 71.3149 14.5248 71.8608L20.1847 145.905Z" fill="#F3C8A1"/>
</g>
<defs>
<clipPath id="clip0">
<rect width="158" height="150" fill="white"/>
</clipPath>
</defs>
</svg>
