<svg width="167" height="132" viewBox="0 0 167 132" fill="none" xmlns="http://www.w3.org/2000/svg">
    <path d="M157.107 131.209H10.0461C4.60186 131.209 0.153564 126.754 0.153564 121.3V10.3744C0.153564 4.92118 4.60186 0.465515 10.0461 0.465515H157.107C162.552 0.465515 167 4.92118 167 10.3744V121.3C167 126.754 162.552 131.209 157.107 131.209ZM10.0461 4.98768C7.05841 4.98768 4.66827 7.38177 4.66827 10.3744V121.3C4.66827 124.293 7.05841 126.687 10.0461 126.687H157.107C160.095 126.687 162.485 124.293 162.485 121.3V10.3744C162.485 7.38177 160.095 4.98768 157.107 4.98768H10.0461Z" fill="#F3C8A1"/>
    <path d="M137.588 131.209H29.0347C23.5905 131.209 19.1421 126.754 19.1421 121.3V29.4606C19.1421 24.0074 23.5905 19.5517 29.0347 19.5517H137.588C143.032 19.5517 147.481 24.0074 147.481 29.4606V121.3C147.481 126.754 143.032 131.209 137.588 131.209ZM29.0347 24.0739C26.047 24.0739 23.6568 26.468 23.6568 29.4606V121.3C23.6568 124.293 26.047 126.687 29.0347 126.687H137.588C140.576 126.687 142.966 124.293 142.966 121.3V29.4606C142.966 26.468 140.576 24.0739 137.588 24.0739H29.0347Z" fill="#F3C8A1"/>
    <path d="M50.5462 130.943H29.0348C23.7233 130.943 19.4077 126.621 19.4077 121.3V106.936C19.4077 101.616 23.7233 97.2931 29.0348 97.2931H50.5462C55.8576 97.2931 60.1732 101.616 60.1732 106.936V121.3C60.1732 126.621 55.8576 130.943 50.5462 130.943ZM29.0348 101.283C25.9143 101.283 23.3913 103.81 23.3913 106.936V121.3C23.3913 124.426 25.9143 126.953 29.0348 126.953H50.5462C53.6667 126.953 56.1896 124.426 56.1896 121.3V106.936C56.1896 103.81 53.6667 101.283 50.5462 101.283H29.0348Z" fill="#F3C8A1"/>
    <path d="M87.2617 130.943H65.7501C60.4386 130.943 56.123 126.621 56.123 121.3V106.936C56.123 101.616 60.4386 97.2931 65.7501 97.2931H87.2617C92.5732 97.2931 96.8888 101.616 96.8888 106.936V121.3C96.8888 126.621 92.5732 130.943 87.2617 130.943ZM65.7501 101.283C62.6296 101.283 60.1067 103.81 60.1067 106.936V121.3C60.1067 124.426 62.6296 126.953 65.7501 126.953H87.2617C90.3822 126.953 92.9052 124.426 92.9052 121.3V106.936C92.9052 103.81 90.3822 101.283 87.2617 101.283H65.7501Z" fill="#F3C8A1"/>
    <path d="M123.977 130.943H102.532C97.2206 130.943 92.905 126.621 92.905 121.3V106.936C92.905 101.616 97.2206 97.2931 102.532 97.2931H124.044C129.355 97.2931 133.671 101.616 133.671 106.936V121.3C133.604 126.621 129.289 130.943 123.977 130.943ZM102.532 101.283C99.4116 101.283 96.8887 103.81 96.8887 106.936V121.3C96.8887 124.426 99.4116 126.953 102.532 126.953H124.044C127.164 126.953 129.687 124.426 129.687 121.3V106.936C129.687 103.81 127.164 101.283 124.044 101.283H102.532Z" fill="#F3C8A1"/>
    <path d="M100.806 101.286H79.2944C73.9828 101.286 69.6672 96.9631 69.6672 91.6429V77.2784C69.6672 71.9582 73.9828 67.6355 79.2944 67.6355H100.806C106.118 67.6355 110.433 71.9582 110.433 77.2784V91.6429C110.367 96.9631 106.051 101.286 100.806 101.286ZM79.2944 71.6256C76.1738 71.6256 73.6509 74.1527 73.6509 77.2784V91.6429C73.6509 94.7685 76.1738 97.2956 79.2944 97.2956H100.806C103.927 97.2956 106.449 94.7685 106.449 91.6429V77.2784C106.449 74.1527 103.927 71.6256 100.806 71.6256H79.2944Z" fill="#F3C8A1"/>
    <path d="M80.3568 71.6281H58.8453C53.5338 71.6281 49.2183 67.3055 49.2183 61.9853V47.6207C49.2183 42.3005 53.5338 37.9778 58.8453 37.9778H80.3568C85.6683 37.9778 89.9839 42.3005 89.9839 47.6207V61.9853C89.9839 67.3055 85.6683 71.6281 80.3568 71.6281ZM58.8453 41.968C55.7248 41.968 53.2019 44.4951 53.2019 47.6207V61.9853C53.2019 65.1109 55.7248 67.638 58.8453 67.638H80.3568C83.4773 67.638 86.0003 65.1109 86.0003 61.9853V47.6207C86.0003 44.4951 83.4773 41.968 80.3568 41.968H58.8453Z" fill="#F3C8A1"/>
    <path d="M64.0238 101.286H42.5123C37.2008 101.286 32.8853 96.9631 32.8853 91.6429V77.2784C32.8853 71.9582 37.2008 67.6355 42.5123 67.6355H64.0238C69.3353 67.6355 73.6509 71.9582 73.6509 77.2784V91.6429C73.6509 96.9631 69.3353 101.286 64.0238 101.286ZM42.5123 71.6256C39.3918 71.6256 36.8689 74.1527 36.8689 77.2784V91.6429C36.8689 94.7685 39.3918 97.2956 42.5123 97.2956H64.0238C67.1443 97.2956 69.6673 94.7685 69.6673 91.6429V77.2784C69.6673 74.1527 67.1443 71.6256 64.0238 71.6256H42.5123Z" fill="#F3C8A1"/>
</svg>
