<svg width="277" height="84" viewBox="0 0 277 84" fill="none" xmlns="http://www.w3.org/2000/svg">
<path fill-rule="evenodd" clip-rule="evenodd" d="M157.479 34.0527H106.568V31.6911H157.479L146.575 22.7984L148.196 21.0641L162.6 32.9088L148.159 44.7535L146.575 42.9823L157.479 34.0527Z" fill="#23242A"/>
<path fill-rule="evenodd" clip-rule="evenodd" d="M111.726 62.8343H162.637V65.1958H111.726L122.63 74.0886L121.009 75.8229L106.605 63.9781L121.046 52.1334L122.63 53.9046L111.726 62.8343Z" fill="#23242A"/>
<path d="M271.385 83.3913H189.787C186.766 83.3913 184.298 80.9191 184.298 77.8933V16.3451C184.298 13.3193 186.766 10.847 189.787 10.847H271.385C274.406 10.847 276.874 13.3193 276.874 16.3451V77.8933C276.874 80.9191 274.406 83.3913 271.385 83.3913ZM189.787 13.3562C188.129 13.3562 186.803 14.6846 186.803 16.3451V77.8933C186.803 79.5538 188.129 80.8822 189.787 80.8822H271.385C273.043 80.8822 274.369 79.5538 274.369 77.8933V16.3451C274.369 14.6846 273.043 13.3562 271.385 13.3562H189.787Z" fill="#23242A"/>
<path d="M260.555 83.3914H200.323C197.302 83.3914 194.834 80.9191 194.834 77.8934V26.9353C194.834 23.9095 197.302 21.4373 200.323 21.4373H260.555C263.576 21.4373 266.044 23.9095 266.044 26.9353V77.8934C266.044 80.9191 263.576 83.3914 260.555 83.3914ZM200.323 23.9464C198.665 23.9464 197.339 25.2748 197.339 26.9353V77.8934C197.339 79.5539 198.665 80.8822 200.323 80.8822H260.555C262.212 80.8822 263.539 79.5539 263.539 77.8934V26.9353C263.539 25.2748 262.212 23.9464 260.555 23.9464H200.323Z" fill="#23242A"/>
<path d="M212.259 83.2438H200.323C197.376 83.2438 194.981 80.8453 194.981 77.8933V69.9231C194.981 66.9711 197.376 64.5726 200.323 64.5726H212.259C215.206 64.5726 217.6 66.9711 217.6 69.9231V77.8933C217.6 80.8453 215.206 83.2438 212.259 83.2438ZM200.323 66.7866C198.592 66.7866 197.192 68.1888 197.192 69.9231V77.8933C197.192 79.6276 198.592 81.0298 200.323 81.0298H212.259C213.99 81.0298 215.39 79.6276 215.39 77.8933V69.9231C215.39 68.1888 213.99 66.7866 212.259 66.7866H200.323Z" fill="#23242A"/>
<path d="M232.631 83.2438H220.695C217.748 83.2438 215.353 80.8453 215.353 77.8933V69.9231C215.353 66.9711 217.748 64.5726 220.695 64.5726H232.631C235.578 64.5726 237.972 66.9711 237.972 69.9231V77.8933C237.972 80.8453 235.578 83.2438 232.631 83.2438ZM220.695 66.7866C218.963 66.7866 217.563 68.1888 217.563 69.9231V77.8933C217.563 79.6276 218.963 81.0298 220.695 81.0298H232.631C234.362 81.0298 235.762 79.6276 235.762 77.8933V69.9231C235.762 68.1888 234.362 66.7866 232.631 66.7866H220.695Z" fill="#23242A"/>
<path d="M253.003 83.2438H241.104C238.157 83.2438 235.762 80.8453 235.762 77.8933V69.9231C235.762 66.9711 238.157 64.5726 241.104 64.5726H253.04C255.987 64.5726 258.381 66.9711 258.381 69.9231V77.8933C258.344 80.8453 255.95 83.2438 253.003 83.2438ZM241.104 66.7866C239.372 66.7866 237.972 68.1888 237.972 69.9231V77.8933C237.972 79.6276 239.372 81.0298 241.104 81.0298H253.04C254.771 81.0298 256.171 79.6276 256.171 77.8933V69.9231C256.171 68.1888 254.771 66.7866 253.04 66.7866H241.104Z" fill="#23242A"/>
<path d="M240.146 66.7879H228.21C225.263 66.7879 222.868 64.3895 222.868 61.4375V53.4672C222.868 50.5153 225.263 48.1168 228.21 48.1168H240.146C243.093 48.1168 245.488 50.5153 245.488 53.4672V61.4375C245.451 64.3895 243.056 66.7879 240.146 66.7879ZM228.21 50.3308C226.479 50.3308 225.079 51.733 225.079 53.4672V61.4375C225.079 63.1718 226.479 64.574 228.21 64.574H240.146C241.877 64.574 243.277 63.1718 243.277 61.4375V53.4672C243.277 51.733 241.877 50.3308 240.146 50.3308H228.21Z" fill="#23242A"/>
<path d="M228.799 50.3323H216.864C213.917 50.3323 211.522 47.9338 211.522 44.9818V37.0116C211.522 34.0596 213.917 31.6611 216.864 31.6611H228.799C231.747 31.6611 234.141 34.0596 234.141 37.0116V44.9818C234.141 47.9338 231.747 50.3323 228.799 50.3323ZM216.864 33.8751C215.132 33.8751 213.732 35.2773 213.732 37.0116V44.9818C213.732 46.7161 215.132 48.1183 216.864 48.1183H228.799C230.531 48.1183 231.931 46.7161 231.931 44.9818V37.0116C231.931 35.2773 230.531 33.8751 228.799 33.8751H216.864Z" fill="#23242A"/>
<path d="M219.737 66.7879H207.801C204.854 66.7879 202.46 64.3895 202.46 61.4375V53.4672C202.46 50.5153 204.854 48.1168 207.801 48.1168H219.737C222.684 48.1168 225.079 50.5153 225.079 53.4672V61.4375C225.079 64.3895 222.684 66.7879 219.737 66.7879ZM207.801 50.3308C206.07 50.3308 204.67 51.733 204.67 53.4672V61.4375C204.67 63.1718 206.07 64.574 207.801 64.574H219.737C221.468 64.574 222.868 63.1718 222.868 61.4375V53.4672C222.868 51.733 221.468 50.3308 219.737 50.3308H207.801Z" fill="#23242A"/>
<g clip-path="url(#clip0_54_21)">
<path d="M7.26463 32.0675C6.24304 29.3412 5.41063 25.4411 6.58357 21.6545C8.13488 16.6562 12.8645 13.2862 14.4536 12.7939C14.5293 12.7561 14.6049 12.7561 14.6806 12.7182C15.286 12.5667 16.3076 12.2638 17.3292 11.5065C15.2482 15.861 13.6212 20.4428 12.4483 25.1381C11.8807 27.4101 11.4267 29.7577 11.0483 32.0675H13.3563C13.6969 29.9092 14.1131 27.7887 14.6428 25.7061C15.9292 20.5564 17.8211 15.5202 20.2426 10.787C20.3183 10.9385 20.394 11.1657 20.4318 11.4308C20.4696 11.5444 20.4696 11.6201 20.5075 11.6958C20.9615 13.5134 21.9831 14.6115 22.8155 15.5202C23.0425 15.7474 23.2317 15.9746 23.4209 16.2018C24.8209 17.9815 26.3722 22.4497 25.5019 26.9178C25.1235 28.7732 24.3668 30.5529 23.4209 32.0675H26.0695C26.8262 30.5908 27.4316 28.9626 27.7721 27.3722C28.7559 22.4875 27.2046 17.2621 25.2371 14.8008C25.01 14.5357 24.783 14.2707 24.5182 14.0056C23.7993 13.2483 23.0804 12.4531 22.7777 11.1657C22.7398 11.09 22.7398 11.0142 22.702 10.9385C22.5507 10.2948 22.3615 9.46174 21.5291 8.74229C20.5453 7.90925 19.0318 7.68206 17.8211 8.21218C17.2157 8.47724 16.8751 8.81803 16.6103 9.15882C16.5346 9.27241 16.4211 9.34815 16.3076 9.46174C15.5887 10.1433 14.7185 10.4084 14.1509 10.5598C14.0374 10.5977 13.9239 10.6356 13.8104 10.6356C12.751 10.9764 10.8591 12.0745 9.00512 13.892C7.45382 15.3688 5.44847 17.7922 4.42688 21.0486C3.21611 24.8352 3.78366 28.9247 4.84308 32.0675H7.26463Z" fill="#23242A"/>
<path d="M28.7937 32.0676C27.2046 27.7888 27.9613 23.0934 28.6802 21.7303C28.718 21.6545 28.7559 21.5788 28.7937 21.5031C29.0964 20.973 29.6261 20.0263 29.7775 18.7767C31.4423 23.3206 33.5611 27.6752 36.0584 31.8025C36.0962 31.8783 36.1719 31.954 36.2097 32.0676H38.8961C38.5934 31.5753 38.2907 31.121 37.988 30.6287C35.226 26.0848 32.9558 21.238 31.2531 16.2019C31.4423 16.2776 31.6315 16.3533 31.8585 16.5048C31.9342 16.5427 32.0098 16.6184 32.1233 16.6563C33.7503 17.6029 35.2638 17.6408 36.4367 17.6786C36.7773 17.6786 37.0799 17.7165 37.3448 17.7165C39.5772 17.9437 43.8906 19.9885 46.4256 23.7372C48.1661 26.2742 48.9985 29.4927 49.0742 32.0297H51.3822C51.3444 28.9247 50.2471 25.2896 48.3174 22.4497C45.5175 18.3224 40.7123 15.7475 37.5718 15.4446C37.2313 15.4067 36.8908 15.4067 36.5124 15.3688C35.4908 15.331 34.3935 15.2931 33.2584 14.6494C33.1828 14.6115 33.1071 14.5737 33.0314 14.5358C32.4639 14.195 31.7071 13.7406 30.6856 13.8163C29.4369 13.9299 28.1883 14.8766 27.6965 16.0883C27.4316 16.732 27.4694 17.1864 27.5073 17.6029C27.5073 17.7165 27.5073 17.868 27.5073 18.0573C27.5073 19.0797 27.0532 19.837 26.7505 20.3671C26.6749 20.4807 26.637 20.5943 26.5992 20.67C26.1073 21.6545 25.5776 23.775 25.5398 26.3877C25.5398 27.9024 25.6911 29.9471 26.3343 32.0676H28.7937V32.0676Z" fill="#23242A"/>
<path d="M63.4143 32.219C63.4143 31.4617 63.49 30.7044 63.6035 29.9471C64.5494 24.7973 68.7871 20.8593 70.3384 20.1777C70.4141 20.1399 70.4897 20.102 70.5654 20.0641C71.133 19.8369 72.1546 19.4204 73.0626 18.5495C71.587 22.9798 70.5276 27.5615 69.9222 32.219H72.2302C72.9113 27.1829 74.1221 22.2603 75.8625 17.4893C75.9761 17.6407 76.0517 17.8301 76.1274 18.133C76.1652 18.2087 76.2031 18.3223 76.2409 18.398C76.922 20.1777 78.0571 21.1244 78.9651 21.9196C79.23 22.1467 79.457 22.3361 79.6462 22.5254C81.1597 24.04 83.165 27.9781 83.0515 32.2569H85.3217C85.4352 27.5615 83.3542 22.9798 81.2353 20.8972C80.9705 20.6321 80.7056 20.4428 80.4408 20.1777C79.6462 19.4962 78.8138 18.8146 78.3598 17.565C78.3219 17.4893 78.2841 17.4135 78.2841 17.3378C78.0571 16.732 77.7544 15.8989 76.8841 15.3309C75.8247 14.6493 74.2734 14.6115 73.1383 15.2552C72.5708 15.596 72.2681 15.9746 72.041 16.3154C71.9654 16.429 71.8897 16.5426 71.7762 16.6562C71.133 17.4514 70.3006 17.7543 69.7708 17.9815C69.6573 18.0194 69.5438 18.0573 69.4681 18.0951C67.5385 18.966 62.5062 23.472 61.4089 29.5306C61.2576 30.4393 61.1819 31.3102 61.1819 32.1812H63.4143V32.219Z" fill="#23242A"/>
<path d="M27.9613 6.73541C31.8207 3.17604 37.5718 2.57019 39.1988 2.94884C39.2745 2.94884 39.3502 2.98671 39.4258 3.02458C40.0312 3.17604 41.0528 3.4411 42.3393 3.28963C38.3664 6.05383 34.6962 9.19668 31.3288 12.6803C30.7612 13.2862 30.1937 13.892 29.664 14.4979C30.0423 14.4221 30.4207 14.4221 30.7991 14.4221C31.4423 14.4221 32.0477 14.4979 32.6152 14.6872C32.7287 14.5736 32.8422 14.4221 32.9558 14.3085C36.6637 10.4462 40.7879 7.03834 45.2148 4.08481C45.2148 4.27414 45.1392 4.46347 45.0635 4.7664C45.0257 4.84213 45.0257 4.95572 44.9878 5.03146C44.4959 6.84901 44.7986 8.32577 45.0635 9.46174C45.1392 9.76466 45.2148 10.0676 45.2527 10.3326C45.5554 12.3017 44.9121 16.1261 42.7176 19.3825C43.6635 19.4204 44.4959 19.5719 45.177 19.7612C47.1823 16.3912 47.9012 12.491 47.5229 9.99186C47.485 9.65107 47.4094 9.31027 47.2959 8.93162C47.0688 7.90925 46.8418 6.88687 47.1823 5.59944C47.2202 5.52371 47.2202 5.44798 47.258 5.37225C47.4472 4.7664 47.7121 3.89549 47.3337 2.91098C46.9175 1.69928 45.7067 0.752635 44.3824 0.601173C43.7014 0.525441 43.2473 0.676904 42.869 0.790501C42.7555 0.828367 42.6041 0.866232 42.4528 0.904098C41.469 1.13129 40.5988 0.904098 40.0312 0.752635C39.9177 0.71477 39.8042 0.676904 39.6907 0.676904C38.6313 0.44971 36.3989 0.487576 33.9017 1.09343C31.8207 1.62355 28.8694 2.72165 26.3722 4.99359C24.1398 7.0762 22.7398 9.7268 21.9074 12.3017C22.5507 12.7182 23.156 13.2862 23.7614 14.0435C24.4425 11.6579 25.6911 8.85589 27.9613 6.73541Z" fill="#23242A"/>
<path d="M40.5609 18.3224C40.5609 18.3981 40.5609 18.4738 40.5609 18.5874C40.6744 18.5496 40.8258 18.5496 40.9393 18.5117C40.8258 18.4738 40.6744 18.3981 40.5609 18.3224Z" fill="#23242A"/>
<path d="M46.2364 15.7096C45.8959 16.4669 45.4419 17.1106 44.8743 17.6029C47.5229 20.3292 50.3985 22.8283 53.4632 25.1003C56.1875 27.145 59.0631 28.9626 62.0522 30.6287C62.0522 29.7956 62.1657 28.9626 62.3549 28.1674C59.7441 26.6906 57.2469 25.0624 54.8254 23.2827C51.7606 21.0108 48.885 18.4738 46.2364 15.7096Z" fill="#23242A"/>
<path d="M61.3711 11.8473C57.2469 9.08313 51.7984 8.47728 48.7715 9.34819C48.4309 9.46179 48.0904 9.57538 47.7499 9.68898C47.2202 9.87831 46.6526 10.0676 46.0851 10.1812C46.4634 10.7871 46.7283 11.5444 46.804 12.3774C47.4472 12.226 48.0526 12.0367 48.5445 11.8473C48.8471 11.7337 49.1498 11.6201 49.3769 11.5444C51.5335 10.9385 56.301 11.2036 60.0468 13.7406C63.2629 15.899 65.571 19.5341 66.1763 22.2225C66.8196 21.7681 67.5385 21.4273 68.2574 21.1623C67.4249 17.868 64.7385 14.1193 61.3711 11.8473Z" fill="#23242A"/>
<path d="M77.5274 83.8299H10.1781C9.57269 83.8299 9.08081 83.3755 9.04297 82.7696L5.90253 41.7233C4.38906 41.6097 2.95127 41.0038 1.85401 39.9436C0.605395 38.7697 -0.0756655 37.1794 7.84641e-06 35.589C0.151355 32.7112 2.76209 30.2878 5.9782 30.0985C6.01604 30.0985 6.01604 30.0985 6.05388 30.0985H81.6516C81.6894 30.0985 81.6894 30.0985 81.7272 30.0985C84.9055 30.2878 87.5541 32.6734 87.7054 35.589C87.7811 37.1415 87.1 38.7319 85.8514 39.9436C84.7542 41.0038 83.3164 41.6097 81.8029 41.7233L78.6625 82.7696C78.5868 83.3755 78.0949 83.8299 77.5274 83.8299ZM11.1997 81.5579H76.4301L79.5706 40.4737C79.6084 40.1708 79.7597 39.8678 79.9868 39.6785C80.2138 39.4892 80.5165 39.3756 80.8192 39.4135C82.0678 39.5649 83.3164 39.1484 84.2245 38.2775C84.9812 37.558 85.3974 36.6114 85.3596 35.7026C85.2839 34.2259 83.8083 32.5219 81.5759 32.3705H6.05388C3.82151 32.5219 2.34588 34.188 2.27021 35.7026C2.23237 36.5735 2.64858 37.558 3.40531 38.2775C4.31339 39.1484 5.562 39.5271 6.81061 39.4135C7.1133 39.3756 7.416 39.4892 7.64302 39.6785C7.87004 39.8678 8.02138 40.1708 8.05922 40.4737L11.1997 81.5579Z" fill="#23242A"/>
</g>
<defs>
<clipPath id="clip0_54_21">
<rect width="87.6676" height="83.2287" fill="white" transform="translate(0 0.601196)"/>
</clipPath>
</defs>
</svg>
