<svg width="159" height="97" viewBox="0 0 159 97" fill="none" xmlns="http://www.w3.org/2000/svg">
    <path d="M139.735 96.838H18.3538C17.2628 96.838 16.3763 96.0191 16.3081 94.9272L10.6482 20.9509C7.9205 20.7461 5.32922 19.6542 3.35166 17.7434C1.10134 15.6278 -0.126111 12.7616 0.0102718 9.89536C0.283038 4.70883 4.98826 0.341219 10.7845 0C10.8527 0 10.8527 0 10.9209 0H147.168C147.236 0 147.236 0 147.304 0C153.032 0.341219 157.806 4.64058 158.078 9.89536C158.215 12.6934 156.987 15.5596 154.737 17.7434C152.76 19.6542 150.168 20.7461 147.441 20.9509L141.781 94.9272C141.644 96.0191 140.758 96.838 139.735 96.838ZM20.195 92.7434H137.757L143.417 18.6988C143.485 18.1529 143.758 17.6069 144.167 17.2657C144.577 16.9245 145.122 16.7197 145.668 16.788C147.918 17.061 150.168 16.3103 151.805 14.7407C153.169 13.444 153.919 11.7379 153.851 10.1001C153.714 7.43858 151.055 4.36761 147.031 4.09463H10.9209C6.89762 4.36761 4.23815 7.37033 4.10177 10.1001C4.03358 11.6697 4.78369 13.444 6.14752 14.7407C7.78412 16.3103 10.0344 16.9927 12.2848 16.788C12.8303 16.7197 13.3758 16.9245 13.785 17.2657C14.1941 17.6069 14.4669 18.1529 14.5351 18.6988L20.195 92.7434Z" fill="#F3C8A1"/>
</svg>
