<svg width="89" height="55" viewBox="0 0 89 55" fill="none" xmlns="http://www.w3.org/2000/svg">
<path d="M78.6673 54.2485H10.3327C9.7185 54.2485 9.21943 53.7919 9.18104 53.183L5.99465 11.9314C4.45904 11.8172 3.00022 11.2084 1.8869 10.1428C0.620026 8.96312 -0.0709976 7.36481 0.00578275 5.76651C0.159343 2.87433 2.80827 0.43881 6.07143 0.248535C6.10982 0.248535 6.10982 0.248535 6.14821 0.248535H82.8518C82.8902 0.248535 82.8902 0.248535 82.9286 0.248535C86.1533 0.43881 88.8407 2.83627 88.9942 5.76651C89.071 7.32676 88.38 8.92507 87.1131 10.1428C85.9998 11.2084 84.541 11.8172 83.0053 11.9314L79.819 53.183C79.7422 53.7919 79.2431 54.2485 78.6673 54.2485ZM11.3693 51.9652H77.5539L80.7403 10.6756C80.7787 10.3712 80.9323 10.0667 81.1626 9.87644C81.393 9.68617 81.7001 9.572 82.0072 9.61006C83.2741 9.76228 84.541 9.34367 85.4623 8.46841C86.2301 7.74536 86.6524 6.79399 86.614 5.88067C86.5373 4.39652 85.04 2.68405 82.775 2.53183H6.14821C3.88319 2.68405 2.38597 4.35847 2.30919 5.88067C2.2708 6.75593 2.6931 7.74536 3.4609 8.46841C4.38226 9.34367 5.64914 9.72422 6.91602 9.61006C7.22314 9.572 7.53026 9.68617 7.7606 9.87644C7.99094 10.0667 8.1445 10.3712 8.18289 10.6756L11.3693 51.9652Z" fill="#23242A"/>
</svg>
