<svg width="62" height="87" viewBox="0 0 62 87" fill="none" xmlns="http://www.w3.org/2000/svg">
<path d="M58.3876 35.6553C58.8112 33.4897 57.7353 31.0838 56.0284 29.7291C54.8367 28.7937 53.9011 28.8919 52.3377 28.3933C48.711 27.3159 46.6355 24.7499 45.702 23.7495C42.3698 20.539 28.3031 13.8539 14.3628 16.8142C-2.28829 20.4569 -13.4484 36.8558 -14.6662 41.0745C-14.942 41.8988 -15.5288 45.0664 -18.2097 46.9767C-19.2435 47.786 -19.6948 47.6251 -20.3413 48.3369C-22.2168 50.7308 -21.2268 55.835 -18.3116 57.9151C-16.9909 58.818 -15.9582 58.558 -14.1366 58.9916C-9.28414 60.035 -6.51785 64.0056 -5.19819 65.4579C0.24156 71.3636 15.4135 73.6525 27.4041 69.7417C38.8784 65.9609 47.38 56.5456 49.8754 50.564C51.123 47.5732 51.6634 43.3878 55.4442 39.8279C56.5916 38.6469 57.9806 37.6109 58.3876 35.6553Z" fill="#A66D46" stroke="#23242A" stroke-width="7" stroke-miterlimit="10"/>
<path d="M58.2639 32.9411C46.764 33.2967 32.0524 34.804 15.4157 39.3353C0.715345 43.3792 -11.5521 48.6637 -20.9643 53.5726" fill="#A66D46"/>
<path d="M58.2639 32.9411C46.764 33.2967 32.0524 34.804 15.4157 39.3353C0.715346 43.3792 -11.5521 48.6637 -20.9643 53.5726" stroke="#23242A" stroke-width="7" stroke-miterlimit="10"/>
</svg>
