<svg width="44" height="41" viewBox="0 0 44 41" fill="none" xmlns="http://www.w3.org/2000/svg">
<path d="M41.1489 10.5244C41.0488 9.36009 40.1503 8.29208 39.0838 7.85119C38.3407 7.54868 37.8787 7.73511 37.01 7.70917C35.0066 7.68938 33.5758 6.68556 32.9547 6.31233C30.7902 5.1636 22.654 3.81078 15.9884 7.3502C8.04206 11.6322 4.75093 21.6082 4.74595 23.9335C4.72573 24.3934 4.88878 26.0916 3.80236 27.455C3.39404 28.0178 3.14083 28.0016 2.91545 28.4583C2.3096 29.9504 3.55773 32.4047 5.34511 33.0388C6.14915 33.3059 6.63701 33.023 7.62764 32.9782C10.2502 32.802 12.2374 34.4202 13.121 34.9672C16.7514 37.1809 24.8094 36.1344 30.3439 32.3953C35.6345 28.7976 38.5902 22.7647 38.9886 19.3556C39.1878 17.6511 38.8527 15.4414 40.2586 13.0778C40.6706 12.3093 41.2268 11.5793 41.1489 10.5244Z" fill="#A66D46" stroke="#23242A" stroke-width="4" stroke-miterlimit="10"/>
<path d="M40.6902 9.16058C34.8872 11.0181 27.6171 13.9302 19.8076 18.6626C12.913 22.8645 7.43777 27.3433 3.36154 31.2147" fill="#A66D46"/>
<path d="M40.6902 9.16058C34.8872 11.0181 27.6171 13.9302 19.8076 18.6626C12.913 22.8645 7.43777 27.3433 3.36154 31.2147" stroke="#23242A" stroke-width="4" stroke-miterlimit="10"/>
</svg>
