<svg width="68" height="69" viewBox="0 0 68 69" fill="none" xmlns="http://www.w3.org/2000/svg">
<g clip-path="url(#clip0_137_455)">
<path d="M5.28083 42.7082C5.07995 44.331 5.99125 46.0445 7.31217 46.9458C8.23381 47.5673 8.91519 47.4408 10.0874 47.7185C12.8026 48.3042 14.4554 50.0781 15.1909 50.7625C17.7983 52.9396 28.4567 57.0611 38.5333 54.071C50.5639 50.4208 57.9193 37.673 58.5987 34.489C58.7593 33.8647 59.0291 31.4929 60.8989 29.9282C61.6163 29.2712 61.9555 29.3639 62.3937 28.8012C63.6481 26.926 62.663 23.2161 60.4189 21.8492C59.4043 21.2591 58.6599 21.5107 57.3015 21.2958C53.6888 20.8061 51.4581 18.0353 50.4163 17.0397C46.1261 12.9952 34.8798 12.1822 26.2818 15.7611C18.0559 19.2143 12.2966 26.6543 10.7694 31.2132C10.0058 33.4926 9.82162 36.6128 7.2285 39.4586C6.44668 40.3965 5.48023 41.2414 5.28083 42.7082Z" fill="#A66D46" stroke="#23242A" stroke-width="6" stroke-miterlimit="10"/>
<path d="M5.50928 44.7043C13.9276 43.7777 24.6437 41.8155 36.6187 37.5102C47.1979 33.6765 55.9294 29.0677 62.5852 24.9011" fill="#A66D46"/>
<path d="M5.50928 44.7043C13.9276 43.7777 24.6437 41.8155 36.6187 37.5102C47.1979 33.6765 55.9294 29.0677 62.5852 24.9011" stroke="#23242A" stroke-width="6" stroke-miterlimit="10"/>
</g>
<defs>
<clipPath id="clip0_137_455">
<rect width="50.7306" height="49.2812" fill="white" transform="translate(0.796631 46.0891) rotate(-63.2367)"/>
</clipPath>
</defs>
</svg>
