<svg width="46" height="56" viewBox="0 0 46 56" fill="none" xmlns="http://www.w3.org/2000/svg">
<path d="M-5.33931 2.81958C-7.06897 3.44616 -8.3269 5.24756 -8.56276 7.04896C-8.72 8.3021 -8.24828 8.92868 -7.93379 10.2601C-7.14759 13.3147 -8.09104 15.8993 -8.40552 16.9958C-9.27035 20.7552 -8.01242 33.6783 0.0855159 42.372C9.83448 52.7105 26.3448 53.6504 29.8828 52.7105C30.5903 52.5539 33.1062 51.614 35.6221 52.7105C36.6441 53.1021 36.7228 53.4937 37.509 53.6504C40.0248 53.9636 43.2483 51.0657 43.4841 48.0895C43.5628 46.758 42.9338 46.1315 42.4621 44.6434C41.1255 40.7273 42.7765 37.0462 43.2483 35.4797C45.1352 29.0573 40.2607 17.2308 32.32 10.3385C24.6938 3.75945 14.3159 1.72308 8.96965 2.5063C6.29655 2.89791 3.0731 4.3077 -1.09379 3.13287C-2.43035 2.81958 -3.7669 2.27133 -5.33931 2.81958Z" fill="#A66D46" stroke="#23242A" stroke-width="6.0269" stroke-miterlimit="10"/>
<path d="M-7.22621 4.07275C-2.03725 12.1399 5.3531 22.0084 15.731 31.9553C24.9296 40.7273 33.971 47.228 41.5186 51.849" fill="#A66D46"/>
<path d="M-7.22621 4.07275C-2.03725 12.1399 5.3531 22.0084 15.731 31.9553C24.9296 40.7273 33.971 47.228 41.5186 51.849" stroke="#23242A" stroke-width="6.0269" stroke-miterlimit="10"/>
</svg>
