<svg width="36" height="56" viewBox="0 0 36 56" fill="none" xmlns="http://www.w3.org/2000/svg">
<path d="M5.66069 2.81958C3.93103 3.44616 2.6731 5.24756 2.43724 7.04896C2.28 8.3021 2.75172 8.92868 3.06621 10.2601C3.85241 13.3147 2.90896 15.8993 2.59448 16.9958C1.72965 20.7552 2.98758 33.6783 11.0855 42.372C20.8345 52.7105 37.3448 53.6504 40.8828 52.7105C41.5903 52.5539 44.1062 51.614 46.6221 52.7105C47.6441 53.1021 47.7228 53.4937 48.509 53.6504C51.0248 53.9636 54.2483 51.0657 54.4841 48.0895C54.5628 46.758 53.9338 46.1315 53.4621 44.6434C52.1255 40.7273 53.7765 37.0462 54.2483 35.4797C56.1352 29.0573 51.2607 17.2308 43.32 10.3385C35.6938 3.75945 25.3159 1.72308 19.9697 2.5063C17.2965 2.89791 14.0731 4.3077 9.90621 3.13287C8.56965 2.81958 7.2331 2.27133 5.66069 2.81958Z" fill="#A66D46" stroke="#23242A" stroke-width="6.0269" stroke-miterlimit="10"/>
<path d="M3.77378 4.07272C8.96275 12.1399 16.3531 22.0084 26.731 31.9552C35.9296 40.7273 44.971 47.228 52.5186 51.8489" fill="#A66D46"/>
<path d="M3.77378 4.07272C8.96275 12.1399 16.3531 22.0084 26.731 31.9552C35.9296 40.7273 44.971 47.228 52.5186 51.8489" stroke="#23242A" stroke-width="6.0269" stroke-miterlimit="10"/>
</svg>
