<svg width="98" height="159" viewBox="0 0 98 159" fill="none" xmlns="http://www.w3.org/2000/svg">
    <path d="M81.4647 158.076H16.3328C7.36967 158.076 0 150.695 0 141.717V16.3596C0 7.38177 7.36967 0 16.3328 0H81.4647C90.4942 0 97.7975 7.38177 97.7975 16.3596V141.65C97.8639 150.695 90.4942 158.076 81.4647 158.076ZM16.3328 4.38916C9.75983 4.38916 4.38196 9.77586 4.38196 16.3596V141.65C4.38196 148.234 9.75983 153.621 16.3328 153.621H81.4647C88.0376 153.621 93.4155 148.234 93.4155 141.65V16.3596C93.4155 9.77586 88.0376 4.38916 81.4647 4.38916H16.3328Z" fill="#F3C8A1"/>
    <path d="M77.9457 122.564H19.9179C13.5442 122.564 8.36548 117.377 8.36548 110.993V22.8768C8.43187 16.4926 13.5442 11.3054 19.9179 11.3054H77.9457C84.3195 11.3054 89.4318 16.4926 89.4318 22.8768V111.059C89.4318 117.377 84.2531 122.564 77.9457 122.564ZM19.9179 15.8276C16.0671 15.8276 12.8802 18.9532 12.8802 22.8768V111.059C12.8802 114.916 16.0007 118.108 19.9179 118.108H77.9457C81.7966 118.108 84.9835 114.983 84.9835 111.059V22.8768C84.9835 19.0197 81.863 15.8276 77.9457 15.8276H19.9179Z" fill="#F3C8A1"/>
    <path d="M48.932 149.764C43.1558 149.764 38.4419 145.042 38.4419 139.256C38.4419 133.47 43.1558 128.749 48.932 128.749C54.7083 128.749 59.4222 133.47 59.4222 139.256C59.4222 145.042 54.7083 149.764 48.932 149.764ZM48.932 132.805C45.3468 132.805 42.4919 135.732 42.4919 139.256C42.4919 142.781 45.4132 145.707 48.932 145.707C52.4509 145.707 55.3722 142.781 55.3722 139.256C55.3722 135.732 52.5173 132.805 48.932 132.805Z" fill="#F3C8A1"/>
</svg>
