<svg width="56" height="89" viewBox="0 0 56 89" fill="none" xmlns="http://www.w3.org/2000/svg">
<path d="M45.8544 88.9771H9.1933C4.1482 88.9771 0 84.8221 0 79.7687V9.2084C0 4.15501 4.1482 0 9.1933 0H45.8544C50.9369 0 55.0477 4.15501 55.0477 9.2084V79.7313C55.085 84.8221 50.9369 88.9771 45.8544 88.9771ZM9.1933 2.47055C5.49356 2.47055 2.46649 5.50258 2.46649 9.2084V79.7313C2.46649 83.4371 5.49356 86.4691 9.1933 86.4691H45.8544C49.5541 86.4691 52.5812 83.4371 52.5812 79.7313V9.2084C52.5812 5.50258 49.5541 2.47055 45.8544 2.47055H9.1933Z" fill="#23242A"/>
<path d="M43.8736 68.9881H11.2113C7.62366 68.9881 4.70871 66.0684 4.70871 62.4749V12.8768C4.74608 9.28326 7.62366 6.36353 11.2113 6.36353H43.8736C47.4613 6.36353 50.3389 9.28326 50.3389 12.8768V62.5123C50.3389 66.0684 47.4239 68.9881 43.8736 68.9881ZM11.2113 8.90894C9.04376 8.90894 7.24995 10.6683 7.24995 12.8768V62.5123C7.24995 64.6834 9.00639 66.4802 11.2113 66.4802H43.8736C46.0412 66.4802 47.835 64.7208 47.835 62.5123V12.8768C47.835 10.7057 46.0785 8.90894 43.8736 8.90894H11.2113V8.90894Z" fill="#23242A"/>
<path d="M27.5426 84.298C24.2913 84.298 21.638 81.6403 21.638 78.3837C21.638 75.1271 24.2913 72.4694 27.5426 72.4694C30.7939 72.4694 33.4472 75.1271 33.4472 78.3837C33.4472 81.6403 30.7939 84.298 27.5426 84.298ZM27.5426 74.7527C25.5246 74.7527 23.9176 76.3998 23.9176 78.3837C23.9176 80.3676 25.5619 82.0147 27.5426 82.0147C29.5233 82.0147 31.1676 80.3676 31.1676 78.3837C31.1676 76.3998 29.5606 74.7527 27.5426 74.7527Z" fill="#23242A"/>
</svg>
