<svg id="Warstwa_1" data-name="Warstwa 1" xmlns="http://www.w3.org/2000/svg" xmlns:xlink="http://www.w3.org/1999/xlink" viewBox="0 0 1191.29 438.52"><defs><style>.cls-1{fill:none;}.cls-2{fill:#e58004;}.cls-3{clip-path:url(#clip-path);}.cls-4{fill:#f3c8a1;}.cls-5{fill:#2d2826;}</style><clipPath id="clip-path"><path class="cls-1" d="M221.22,214c2.69.7,5.26,1.58,5.26,1.58,6.23,2.12,11.86,4,17,8.39,1.72,1.45,11.5,10,12.14,22.83.72,14.51-10.5,30.61-27.44,33.38s-34.35-8.83-37.48-25.84a32.19,32.19,0,0,1,18.61-35.21c-8.2.17-15-.1-19.91-.4-12.18-.75-24.14-1.56-38.31-6.12a115.34,115.34,0,0,1-15.76-6.38c-17.33,34.15-15.14,74.73,6,105.41,30.71,44.49,84.26,43.43,91.21,43.18,42.8-1.59,69.68-28.42,75.16-34.13a111.87,111.87,0,0,0,29.64-60.95c.84-6,6.2-49.07-24.1-85.88-19.68-23.89-45.44-32.71-52.9-35.21-26-8.7-53.56-12-53.56-12-15.93-1.82-30.47-1.94-36.91-11.69-6.09-9.22-6.21-17-6.21-17-.08-4.94,1.39-8.29-.75-11.15-.44-.6-2.63-3.3-10.07-3.22-15.82.17-28.76,12.66-31.75,15.69a60.78,60.78,0,0,0-16.45,29.71c-5.18,23.64,6.07,42.73,11.11,49.89a65.6,65.6,0,0,0,18.44,17.63C161.22,213.26,201.46,208.82,221.22,214Z"/></clipPath></defs><path class="cls-2" d="M221.22,214c2.69.7,5.26,1.58,5.26,1.58,6.23,2.12,11.86,4,17,8.39,1.72,1.45,11.5,10,12.14,22.83.72,14.51-10.5,30.61-27.44,33.38s-34.35-8.83-37.48-25.84a32.19,32.19,0,0,1,18.61-35.21c-8.2.17-15-.1-19.91-.4-12.18-.75-24.14-1.56-38.31-6.12a115.34,115.34,0,0,1-15.76-6.38c-17.33,34.15-15.14,74.73,6,105.41,30.71,44.49,84.26,43.43,91.21,43.18,42.8-1.59,69.68-28.42,75.16-34.13a111.87,111.87,0,0,0,29.64-60.95c.84-6,6.2-49.07-24.1-85.88-19.68-23.89-45.44-32.71-52.9-35.21-26-8.7-53.56-12-53.56-12-15.93-1.82-30.47-1.94-36.91-11.69-6.09-9.22-6.21-17-6.21-17-.08-4.94,1.39-8.29-.75-11.15-.44-.6-2.63-3.3-10.07-3.22-15.82.17-28.76,12.66-31.75,15.69a60.78,60.78,0,0,0-16.45,29.71c-5.18,23.64,6.07,42.73,11.11,49.89a65.6,65.6,0,0,0,18.44,17.63C161.22,213.26,201.46,208.82,221.22,214Z"/><g class="cls-3"><path class="cls-4" d="M128.07,118.1c-5.24,18.37,6.34,37.37,19.31,46.35,22.63,15.68,42.36-4.11,93.12,2.1,17,2.07,41.29,4.94,62.05,21.88,32.95,26.88,35.1,66.44,35.33,72.58,10.47-107.89-7-146.14-29.56-157.24-38-18.67-103.72,32.69-132.12,4.91-6.4-6.26-8.7-14.38-9.66-20.16C147.62,91.12,132.45,102.75,128.07,118.1Z"/></g><path class="cls-2" d="M153.5,86.79c1.35,0,5.45,0,7,2,.75,1,.71,2.15.44,5a34.11,34.11,0,0,0-.08,7.86h0c.23,1.65,1.48,8.47,7.36,16,7,9,17.79,10.08,32.67,11.61,3.79.39,7.7.79,12,1.35a294,294,0,0,1,39.68,8.8c24.66,7.34,44.3,19.6,58.35,36.44,29.25,35.06,24.08,78.58,23.4,83.43a108.47,108.47,0,0,1-28.8,59.22c-9.09,9.49-34.41,31.73-73,33.16-.63,0-1.65.05-3,.05-13.28,0-58.68-3-85.51-41.87-19.94-28.9-22.6-66.74-7.17-99.46a120.13,120.13,0,0,0,13.35,5.2c14.83,4.77,27.71,5.56,39.08,6.26,3.15.2,6.34.33,9.53.4a35.14,35.14,0,0,0-11.12,32.64c3,16.44,18.26,28.83,35.45,28.83a35,35,0,0,0,5.61-.45c19.54-3.2,30.82-21.5,30.07-36.63-.67-13.45-10.31-22.59-13.24-25.08-5.63-4.75-11.66-6.79-18-8.95-.11,0-2.72-.93-5.49-1.66-6.89-1.8-15.76-2.46-26-3.21-19.07-1.41-42.79-3.15-60.07-13.85a62.7,62.7,0,0,1-17.53-16.77c-4.81-6.84-15.49-25.16-10.61-47.41a57.27,57.27,0,0,1,15.62-28.18c3.38-3.42,15.49-14.6,29.56-14.75h.55m0-3.14h-.59c-15.82.17-28.76,12.66-31.75,15.69a60.78,60.78,0,0,0-16.45,29.71c-5.18,23.64,6.07,42.73,11.11,49.89a65.6,65.6,0,0,0,18.44,17.63c27,16.69,67.2,12.25,87,17.43,2.69.7,5.26,1.58,5.26,1.58,6.23,2.12,11.86,4,17,8.39,1.72,1.45,11.5,10,12.14,22.83.72,14.51-10.5,30.61-27.44,33.38a31.53,31.53,0,0,1-5.11.41c-15.27,0-29.55-10.94-32.37-26.25a32.19,32.19,0,0,1,18.61-35.21c-1.78,0-3.5.05-5.15.05-5.92,0-10.93-.21-14.76-.45-12.18-.75-24.14-1.56-38.31-6.12a115.34,115.34,0,0,1-15.76-6.38c-17.33,34.15-15.14,74.73,6,105.41,27.84,40.32,74.43,43.23,88.09,43.23,1.41,0,2.47,0,3.12-.05,42.8-1.59,69.68-28.42,75.16-34.13a111.87,111.87,0,0,0,29.64-60.95c.67-4.77,6.26-49.49-24.1-85.88-21.79-26.11-51.17-34.85-59.86-37.44a293.16,293.16,0,0,0-40.17-8.9c-20.77-2.75-34.74-1.78-42.57-11.78-5.89-7.52-6.73-14.43-6.73-14.43-.83-6.76,1.69-11-1-14.44-2.27-2.94-6.61-3.22-9.48-3.22Z"/><path class="cls-5" d="M427.18,291.06q-15.51,0-25.67-5t-10.15-13.83q0-5.76,3.52-8.56a14.21,14.21,0,0,1,9.11-2.8,13.07,13.07,0,0,1,9.52,3.52,16.25,16.25,0,0,1,4.63,7.76,27.18,27.18,0,0,0,3.2,7.75,6.57,6.57,0,0,0,5.84,3.52q6.24,0,6.23-7.36a11.07,11.07,0,0,0-4.23-9A30.23,30.23,0,0,0,419,261.71q-5.91-1.83-11.91-4.16A24.1,24.1,0,0,1,396.87,250q-4.23-5.28-4.23-13.75,0-11,9.59-18t25.11-7q15.18,0,24.78,5.52t9.6,13.83a10,10,0,0,1-3.52,7.67,12.33,12.33,0,0,1-8.63,3.2,12.53,12.53,0,0,1-7.84-2.32,12.87,12.87,0,0,1-4.32-5.51q-1.28-3.19-2.24-6.48a25,25,0,0,0-2.32-5.6,4.17,4.17,0,0,0-3.75-2.32q-5.13,0-5.12,7.84a12.88,12.88,0,0,0,4,9.84,27,27,0,0,0,9.67,5.75q5.69,2,11.36,4.24a23,23,0,0,1,9.67,7.28c2.66,3.35,4,7.65,4,12.87q0,10.55-9.44,17.27T427.18,291.06Z"/><path class="cls-5" d="M558.15,275.06q.63,1,5,4.32t4.4,6.24v.64q0,3.36-4,3.36H526.8c-2.66,0-4-1.18-4-3.52v-.64c0-1.39.8-3.09,2.4-5.12s1.92-3.78,1-5.28l-11.35-18.55-6.88,6.4v7.52q0,4.31,3.68,8.71c2.45,2.94,3.68,5.09,3.68,6.48v.64c0,2.24-1.34,3.36-4,3.36H472.75c-2.66,0-4-1.12-4-3.36v-.64c0-1.39,1.1-3.54,3.28-6.48a14.56,14.56,0,0,0,3.28-8.71V201.82q0-4.31-4.08-8.55t-4.07-6v-.64c0-1.38,1.33-2.72,4-4l29-13.44q3.51-1.44,5.67-.16a4.19,4.19,0,0,1,2.16,3.84v74.68l18.71-15.83a3.16,3.16,0,0,0,1.52-3.44,8.22,8.22,0,0,0-1.68-3.76,36.11,36.11,0,0,1-2.64-3.84,7.65,7.65,0,0,1-1.35-3.67v-.64q0-3.52,4-3.52h27.19c2.66,0,4,1.12,4,3.36v.64q0,2.23-2.4,4.39a63.25,63.25,0,0,1-6.8,5.12,57.6,57.6,0,0,0-6.8,5.2l-8,7.51Z"/><path class="cls-5" d="M573.17,289.62q-4,0-4-3.36v-.64c0-1.39,1.09-3.54,3.27-6.48a14.56,14.56,0,0,0,3.28-8.71V244.68a13.87,13.87,0,0,0-3.28-8.55q-3.27-4.24-3.27-6v-.64c0-1.38,1.33-2.72,4-4l27.35-13.43c2.34-1.07,4.24-1.17,5.68-.32a4.34,4.34,0,0,1,2.16,4v54.69q0,4.31,3.67,8.71c2.45,2.94,3.68,5.09,3.68,6.48v.64q0,3.36-4,3.36ZM607,199.91Q601.32,205,592.36,205t-14.63-5.11a16.37,16.37,0,0,1-5.68-12.64,16.11,16.11,0,0,1,5.68-12.55q5.67-5,14.63-5t14.64,5a16.1,16.1,0,0,1,5.67,12.55A16.36,16.36,0,0,1,607,199.91Z"/><path class="cls-5" d="M655.69,291.21q-12.65,0-20.07-8.07t-7.44-22.95V224.85h-4.8a3.74,3.74,0,0,1-2.87-1.2,4,4,0,0,1-1.12-2.8v-4q0-4,4-4h2.24a22.15,22.15,0,0,0,13.76-4.48,20.3,20.3,0,0,0,7.67-11.83c.75-3,2.34-4.48,4.8-4.48h4.32a4.74,4.74,0,0,1,3.36,1.2,4.28,4.28,0,0,1,1.27,3.28v16.31h15a3.84,3.84,0,0,1,4,4v4a4,4,0,0,1-1.12,2.8,3.74,3.74,0,0,1-2.87,1.2h-15v36a7.63,7.63,0,0,0,1.84,5.36,6.14,6.14,0,0,0,4.72,2q5.76,0,10.07-5.12a4.12,4.12,0,0,1,4.16-1.52,2.74,2.74,0,0,1,2.24,3,26.52,26.52,0,0,1-7.51,18.63Q668.79,291.21,655.69,291.21Z"/><path class="cls-5" d="M745.07,211.26A13.74,13.74,0,0,1,756,216q4.08,4.71,4.08,12.07,0,16.95-13.75,16.95c-3.74,0-6.54-.82-8.4-2.48a8.85,8.85,0,0,1-3.2-5.51,19.47,19.47,0,0,0-1.52-5.52,3.7,3.7,0,0,0-3.52-2.48q-3.83,0-3.83,9.91v31.51a9.26,9.26,0,0,0,2.24,6.07q2.24,2.73,4.47,5c1.49,1.5,2.24,2.88,2.24,4.16v.64q0,3.36-4,3.36H692.62q-4,0-4-3.36v-.64c0-1.39,1.09-3.54,3.27-6.48a14.56,14.56,0,0,0,3.28-8.71V243.08a8.33,8.33,0,0,0-2-5.67,42.38,42.38,0,0,0-4.07-4.16,5.14,5.14,0,0,1-2.08-3.76v-.64q0-2.88,4-5l25.42-12c2.24-.85,3.81-.91,4.72-.16s1.36,2.08,1.36,4v11.67Q727.81,211.26,745.07,211.26Z"/><path class="cls-5" d="M841.18,270.91a17.89,17.89,0,0,0,1.84,6.47,8,8,0,0,0,2.64,3.2,10.76,10.76,0,0,1,2.32,1.76,3.39,3.39,0,0,1,1,2.48q0,5.76-20,5.76-14.55,0-16.47-7-6.24,7.68-19.67,7.67T771,285.06q-8.47-6.15-8.47-18.15,0-11.67,8.31-18.15t20.31-6.48q9.12,0,15.35,3.52-1.92-18.39-3.2-21.75-1.75-4.47-6.07-4.47-3,0-5,3.43a27.09,27.09,0,0,0-2.8,7.68,15.85,15.85,0,0,1-4.08,7.67,11,11,0,0,1-8.47,3.44,13,13,0,0,1-9.12-3.2,10.72,10.72,0,0,1-3.52-8.31,14.33,14.33,0,0,1,5-11.19,27.39,27.39,0,0,1,12.16-6.16,68.55,68.55,0,0,1,15.75-1.68q16.47,0,27.42,8.71a34.33,34.33,0,0,1,12.88,23.27Zm-38.06,11.35c1.92,0,3.42-1.12,4.48-3.36a13.37,13.37,0,0,0,1.28-7l-.64-7.52q-1.61-12.8-7.83-12.79a4.48,4.48,0,0,0-3.92,2.56,12.6,12.6,0,0,0-1.52,6.55A47.26,47.26,0,0,0,797.13,276Q799.29,282.26,803.12,282.26Z"/><path class="cls-5" d="M859.25,322.08q-12.79,0-20.23-4.48t-7.43-13.75a12.24,12.24,0,0,1,3.83-9.36,13.48,13.48,0,0,1,9.6-3.59q6.24,0,9.59,3.35a13.34,13.34,0,0,1,4,7.28,24.08,24.08,0,0,0,2.4,7.28q1.75,3.35,5,3.35a5.1,5.1,0,0,0,4.07-1.75,6.59,6.59,0,0,0,1.52-4.48,15.51,15.51,0,0,0-3.11-9.68q-3.12-4.08-6.16-7.75a12.28,12.28,0,0,1-3-8V244.68a13.87,13.87,0,0,0-3.28-8.55q-3.29-4.24-3.28-6v-.64c0-1.38,1.34-2.72,4-4L884,212.06c2.45-1.07,4.37-1.17,5.75-.32a4.35,4.35,0,0,1,2.08,4v75.47q0,13.76-7.19,21a34,34,0,0,1-10.88,7.52Q868,322.08,859.25,322.08Zm29-122.17Q882.6,205,873.64,205T859,199.91a16.33,16.33,0,0,1-5.68-12.64A16.08,16.08,0,0,1,859,174.72q5.67-5,14.63-5t14.63,5A16.08,16.08,0,0,1,894,187.27,16.33,16.33,0,0,1,888.27,199.91Z"/><path class="cls-5" d="M934.41,287q-5.28,4.23-13.43,4.23T907.54,287q-5.26-4.25-5.27-12.4t5.27-12.39Q912.82,258,921,258t13.43,4.24q5.28,4.24,5.28,12.39T934.41,287Z"/><path class="cls-5" d="M998.69,211.26a41.31,41.31,0,0,1,17.67,3.92q8.4,3.91,14.31,13t5.92,21.75q0,18.55-11.19,29.9a36.22,36.22,0,0,1-26.71,11.35q-8.62,0-14.39-3.35v15.67q0,4.32,3.68,8.71t3.68,6.48v.64c0,2.24-1.34,3.36-4,3.36H950.08q-4,0-4-3.36v-.64q0-2.09,3.28-6.48a14.6,14.6,0,0,0,3.28-8.71V243.24c0-2.66-1.36-5.17-4.08-7.51s-4.08-4.27-4.08-5.76v-1q0-2.88,4-5l23.67-11.67c2.66-1.07,4.56-1.25,5.67-.56s1.68,2,1.68,3.92v3.2Q985.43,211.26,998.69,211.26ZM996,282.74q9,0,9-16.63a178.87,178.87,0,0,0-1-18.87,74.7,74.7,0,0,0-4.4-18.63q-3.36-8.88-8.31-8.88-6.88,0-6.88,10.56V260q0,10.25,3.52,16.47T996,282.74Z"/><path class="cls-5" d="M1046.35,289.62q-4,0-4-3.36v-.64c0-1.39,1.09-3.54,3.28-6.48a14.6,14.6,0,0,0,3.27-8.71V201.82a14,14,0,0,0-3.27-8.55q-3.29-4.23-3.28-6v-.64c0-1.38,1.33-2.72,4-4l27.34-13.44q3.52-1.59,5.68-.32a4.33,4.33,0,0,1,2.16,4v97.55q0,4.31,3.68,8.71c2.45,2.94,3.67,5.09,3.67,6.48v.64q0,3.36-4,3.36Z"/></svg>