<svg width="18" height="19" viewBox="0 0 18 19" fill="none" xmlns="http://www.w3.org/2000/svg">
    <path d="M17.9909 9.67775C17.9909 8.89933 17.9297 8.33129 17.7971 7.74222H9.17969V11.2556H14.2379C14.136 12.1287 13.5853 13.4437 12.3615 14.3272L12.3443 14.4449L15.069 16.6221L15.2578 16.6415C16.9915 14.99 17.9909 12.56 17.9909 9.67775Z" fill="#4285F4"/>
    <path d="M9.17982 18.9347C11.6579 18.9347 13.7383 18.0932 15.2579 16.6415L12.3616 14.3272C11.5866 14.8848 10.5463 15.274 9.17982 15.274C6.75267 15.274 4.69266 13.6225 3.95832 11.3398L3.85068 11.3492L1.01752 13.6109L0.980469 13.7171C2.48978 16.8098 5.59004 18.9347 9.17982 18.9347Z" fill="#34A853"/>
    <path d="M3.9588 11.3398C3.76504 10.7507 3.6529 10.1195 3.6529 9.46737C3.6529 8.81513 3.76504 8.18399 3.94861 7.59492L3.94348 7.46946L1.07481 5.17148L0.980954 5.21753C0.358893 6.5009 0.00195312 7.94207 0.00195312 9.46737C0.00195312 10.9927 0.358893 12.4338 0.980954 13.7171L3.9588 11.3398Z" fill="#FBBC05"/>
    <path d="M9.17982 3.66069C10.9033 3.66069 12.0658 4.4286 12.7288 5.07032L15.3191 2.46152C13.7282 0.936221 11.6579 0 9.17982 0C5.59003 0 2.48978 2.12488 0.980469 5.21753L3.94812 7.59492C4.69266 5.31224 6.75267 3.66069 9.17982 3.66069Z" fill="#EB4335"/>
</svg>
